/* XPM */
static char * be_aux_xpm[] = {
"128 128 5 1",
" 	c None",
".	c #A7ABCF",
"+	c #FFFFFF",
"@	c #F80505",
"#	c #AB9393",
"................................................................................................................................",
"................................................................................................................................",
"................................................................................................................................",
"...                                                                                                                          ...",
"...                                                                                                                          ...",
"...                                                                                                                          ...",
"...                                                                                                                          ...",
"...   +++++++++++++++++++++++++++++++++++++++++++++++++++++++++++++++++++++                                                  ...",
"...   +++++++++++++++++++++++++++++++++++++++++++++++++++++++++++++++++++++       @@@@@@@@@@@@@@@@@@@@@@@@@@@@@@@@@@@@@@@    ...",
"...   +++++++++++++++++++++++++++++++++++++++++++++++++++++++++++++++++++++       @@@@@@@@@@@@@@@@@@@@@@@@@@@@@@@@@@@@@@@    ...",
"...   +++++++++++++++++++++++++++++++++++++++++++++++++++++++++++++++++++++       @@@@@@@@@@@@@@@@@@@@@@@@@@@@@@@@@@@@@@@    ...",
"...   +++##############################++++++++++++++++++++++++++++++++++++       @@@@@@@@@@@@@@@@@@@@@@@@@@@@@@@@@@@@@@@    ...",
"...   +++##############################++++++++++++++++++++++++++++++++++++       @@@@@@@@@@@@@@@@@@@@@@@@@@@@@@@@@@@@@@@    ...",
"...   +++##############################++++++++++++++++++++++++++++++++++++       @@@@@@@@@@@@@@@@@@@@@@@@@@@@@@@@@@@@@@@    ...",
"...   +++++++++++++++++++++++++++++++++++++++++++++++++++++++++++++++++++++       @@@@@@@@##########################@@@@@    ...",
"...   +++++++++++++++++++++++++++++++++++++++++++++++++++++++++++++++++++++       @@@@@@@@##########################@@@@@    ...",
"...   +++++++++++++++++++++++++++++++++++++++++++++++++++++++++++++++++++++       @@@@@@@@##########################@@@@@    ...",
"...   +++++++++++++++++++++++++++++++++++++++++++++++++++++++++++++++++++++       @@@@@@@@@@@@@@@@@@@@@@@@@@@@@@@@@@@@@@@    ...",
"...   +++++++++++++++++++++++++++++++++++++++++++++++++++++++++++++++++++++       @@@@@@@@@@@@@@@@@@@@@@@@@@@@@@@@@@@@@@@    ...",
"...   +++++++++++++++++++++++++++++++++++++++++++++++++++++++++++++++++++++       @@@@@@@@@@@@@@@@@@@@@@@@@@@@@@@@@@@@@@@    ...",
"...   ++++++++###++++++++++++++++++++++++++++++++++++++++++++++++++++++++++       @@@@@@@@@@@@@@@@@@@@@@@@@@@@@@@@@@@@@@@    ...",
"...   ++++++++###++++++++++++++++++++++++++++++++++++++++++++++++++++++++++       @@@@@@@@@@@@@@@@@@@@@@@@@@@@@@@@@@@@@@@    ...",
"...   ++++++++###++++++++++++++++++++++++++++++++++++++++++++++++++++++++++       @@@@@@@@@@@@@@@@@@@@@@@@@@@@@@@@@@@@@@@    ...",
"...   +++++++++++++++++++++++++++++++++++++++++++++++++++++++++++++++++++++       @@@@@@@@@@@@@@@@@@@@@@@@@@@@@@@@@@@@@@@    ...",
"...   +++++++++++++++++++++++++++++++++++++++++++++++++++++++++++++++++++++       @@@@@@@@@@@@@@@@@@@@@@@@@@@@@@@@@@@@@@@    ...",
"...   ++++#######################++++++++++++++++++++++++++++++++++++++++++       @@@@@@@@@@@@@@@@@@@@@@@@@@@@@@@@@@@@@@@    ...",
"...   ++++#######################++++++++++++++++++++++++++++++++++++++++++       @@@@@@@@@@@@@@@@@@@@@@@@@@@@@@@@@@@@@@@    ...",
"...   ++++#######################++++++++++++++++++++++++++++++++++++++++++       @@@@@@@@@@@@@@@@@@@@@@@@@@@@@@@@@@@@@@@    ...",
"...   +++++++++++++++++++++++++++++++++++++++++++++++++++++++++++++++++++++       @@@@@@@@@@@@@@@@@@@@@@@@@@@@@@@@@@@@@@@    ...",
"...   +++++++++++++++++++++++++++++++++++++++++++++++++++++++++++++++++++++       @@@@@@@@@@@@@@@@@@@@@@@@@@@@@@@@@@@@@@@    ...",
"...   +++++++++++++++++++++++++++++++++++++++++++++++++++++++++++++++++++++       @@@@@@@@@@@@@@@@@@@@@@@@@@@@@@@@@@@@@@@    ...",
"...   +++++++++++++++++++++++++++++++++++++++++++++++++++++++++++++++++++++       @@@@@@@@@@@@@@@@@@@@@@@@@@@@@@@@@@@@@@@    ...",
"...   +++++++++++++++++++++++++++++++++++++++++++++++++++++++++++++++++++++       @@@@@@@@@@@@@@@@@@@@@@@@@@@@@@@@@@@@@@@    ...",
"...   +++++++++++++++++++++++++++++++++++++++++++++++++++++++++++++++++++++       @@@@@@@@@@@@@@@@@@@@@@@@@@@@@@@@@@@@@@@    ...",
"...   +++++++++++++++++++++++++++++++++++++++++++++++++++++++++++++++++++++       @@@@@@@@@@@@@@@@@@@@@@@@@@@@@@@@@@@@@@@    ...",
"...   +++++++++++++++++++++++++++++++++++++++++++++++++++++++++++++++++++++       @@@@@@@@@@@@@@@@@@@@@@@@@@@@@@@@@@@@@@@    ...",
"...   ++++###############################++++++++++++++++++++++++++++++++++       @@@@@@@@@@@@@@@@@@@@@@@@@@@@@@@@@@@@@@@    ...",
"...   ++++###############################++++++++++++++++++++++++++++++++++       @@@@@@@@@@@@@@@@@@@@@@@@@@@@@@@@@@@@@@@    ...",
"...   ++++###############################++++++++++++++++++++++++++++++++++       @@@@@@@@@@@@@@@@@@@@@@@@@@@@@@@@@@@@@@@    ...",
"...   +++++++++++++++++++++++++++++++++++++++++++++++++++++++++++++++++++++       @@@@@@@@@@@@@@@@@@@@@@@@@@@@@@@@@@@@@@@    ...",
"...   +++++++++++++++++++++++++++++++++++++++++++++++++++++++++++++++++++++       @@@@@@@@@@@@@@@@@@@@@@@@@@@@@@@@@@@@@@@    ...",
"...   +++++++++++++++++++++++++++++++++++++++++++++++++++++++++++++++++++++       @@@@@@@@@@@@@@@@@@@@@@@@@@@@@@@@@@@@@@@    ...",
"...   +++++++++++++++++++++++++++++++++++++++++++++++++++++++++++++++++++++       @@@@@@@@@@@@@@@@@@@@@@@@@@@@@@@@@@@@@@@    ...",
"...   +++++++++++++++++++++++++++++++++++++++++++++++++++++++++++++++++++++       @@@@@@@@@@@########################@@@@    ...",
"...   +++++++++++++++++++++++++++++++++++++++++++++++++++++++++++++++++++++       @@@@@@@@@@@########################@@@@    ...",
"...   +++++++++++++++++++++++++++++++++++++++++++++++++++++++++++++++++++++       @@@@@@@@@@@########################@@@@    ...",
"...   +++++++++++++++++++++++++++++++++++++++++++++++++++++++++++++++++++++       @@@@@@@@@@@@@@@@@@@@@@@@@@@@@@@@@@@@@@@    ...",
"...   +++++++++++++++++++++++++++++++++++++++++++++++++++++++++++++++++++++       @@@@@@@@@@@@@@@@@@@@@@@@@@@@@@@@@@@@@@@    ...",
"...   +++++++++++++++++++++++++++++++++++++++++++++++++++++++++++++++++++++       @@@@@@@@@@@@@@@@@@@@@@@@@@@@@@@@@@@@@@@    ...",
"...   +++++++++++++++++++++++++++++++++++++++++++++++++++++++++++++++++++++       @@@@@@@@@@@@@@@@@@@@@@@@@@@@@@@@@@@@@@@    ...",
"...   +++++++++++++++++++++++++++++++++++++++++++++++++++++++++++++++++++++       @@@@@@@@@@@@@@@@@@@@@@@@@@@@@@@@@@@@@@@    ...",
"...   +++++++++++++++++++++++++++++++++++++++++++++++++++++++++++++++++++++       @@@@@@@@@@@@@@@@@@@@@@@@@@@@@@@@@@@@@@@    ...",
"...   +++++++++++++++++++++++++++++++++++++++++++++++++++++++++++++++++++++       @@@@@@@@@@@@@@@@@@@@@@@@@@@@@@@@@@@@@@@    ...",
"...   ++++++#################################++++++++++++++++++++++++++++++       @@@@@@@@@@@@@@@@@@@@@@@@@@@@@@@@@@@@@@@    ...",
"...   ++++++#################################++++++++++++++++++++++++++++++       @@@@@@@@@@@@@@@@@@@@@@###@@@@@@@@@@@@@@    ...",
"...   ++++++#################################++++++++++++++++++++++++++++++       @@@@@@@@@@@@@@@@@@@@@@###@@@@@@@@@@@@@@    ...",
"...   +++++++++++++++++++++++++++++++++++++++++++++++++++++++++++++++++++++       @@@@@@@@@@@@@@@@@@@@@@###@@@@@@@@@@@@@@    ...",
"...   +++++++++++++++++++++++++++++++++++++++++++++++++++++++++++++++++++++       @@@@@@@@@@@@@@@@@@@@@@@@@@@@@@@@@@@@@@@    ...",
"...   +++++++++++++++++++++++++++++++++++++++++++++++++++++++++++++++++++++       @@@@@@@@@@@@@@@@@@@@@@@@@@@@@@@@@@@@@@@    ...",
"...   +++++++++++++++++++++++++++++++++++++++++++++++++++++++++++++++++++++       @@@@@@@@@@@@@@@@@@@@@@@@@@@@@@@@@@@@@@@    ...",
"...   +++++++++++++++++++++++++++++++++++++++++++++++++++++++++++++++++++++       @@@@@@@@@@@@@@@@@@@@@@@@@@@@@@@@@@@@@@@    ...",
"...   +++++++++++++++++++++++++++++++++++++++++++++++++++++++++++++++++++++       @@@@@@@@@@@@@@@@@@@@@@@@@@@@@@@@@@@@@@@    ...",
"...   +++++++++++++++++++++++++++++++++++++++++++++++++++++++++++++++++++++       @@@@@@@@@@@@@@@@@@@@@@@@@@@@@@@@@@@@@@@    ...",
"...   +++++++++++++++++++++++++++++++++++++++++++++++++++++++++++++++++++++       @@@@@@@@@@@@@@@@@@@@@@@@@@@@@@@@@@@@@@@    ...",
"...   +++++++++++++++++++++++++++++++++++++++++++++++++++++++++++++++++++++       @@@@@@@@@@@@@@@@@@@@@@@@@@@@@@@@@@@@@@@    ...",
"...   +++++++++++++++++++++++++++++++++++++++++++++++++++++++++++++++++++++       @@@@@@@@@@@@@@@@@@@@@@@@@@@@@@@@@@@@@@@    ...",
"...   +++++++++++++++++++++++++++++++++++++++++++++++++++++++++++++++++++++       @@@@@@@@@@@@@@@###@@@@@@@@@@@@@@@@@@@@@    ...",
"...   ++++++#############################++++++++++++++++++++++++++++++++++       @@@@@@@@@@@@@@@###@@@@@@@@@@@@@@@@@@@@@    ...",
"...   ++++++#############################++++++++++++++++++++++++++++++++++       @@@@@@@@@@@@@@@###@@@@@@@@@@@@@@@@@@@@@    ...",
"...   ++++++#############################++++++++++++++++++++++++++++++++++       @@@@@@@@@@@@@@@###@@@@@@@@@@@@@@@@@@@@@    ...",
"...   +++++++++++++++++++++++++++++++++++++++++++++++++++++++++++++++++++++       @@@@@@@@@@@@@@@###@@@@@@@@@@@@@@@@@@@@@    ...",
"...   +++++++++++++++++++++++++++++++++++++++++++++++++++++++++++++++++++++       @@@@@@@@@@@@@@@####@@@@@@@@@@@@@@@@@@@@    ...",
"...   +++++++++++++++++++++++++++++++++++++++++++++++++++++++++++++++++++++       @@@@@@@@@@@@@@@####@@@@@@@@@@@@@@@@@@@@    ...",
"...   +++++++++++++++++++++++++++++++++++++++++++++++++++++++++++++++++++++       @@@@@@@@@@@@@@@@###@@@@@@@@@@@@@@@@@@@@    ...",
"...   +++++++++++++++++++++++++++++++++++++++++++++++++++++++++++++++++++++       @@@@@@@@@@@@@@@@@@@@@@@@@@@@@@@@@@@@@@@    ...",
"...   +++++++++++++++++++++++++++++++++++++++++++++++++++++++++++++++++++++       @@@@@@@@@@@@@@@@@@@@@@@@@@@@@@@@@@@@@@@    ...",
"...   +++++++++++++++++++++++++++++++++++++++++++++++++++++++++++++++++++++       @@@@@@@@@@@@@@@@@@@@@@@@@@@@@@@@@@@@@@@    ...",
"...   +++++++++++++++++++++++++++++++++++++++++++++++++++++++++++++++++++++       @@@@@@@@@@@@@@@@@@@@@@@@@@@@@@@@@@@@@@@    ...",
"...   +++++++++++++++++++++++++++++++++++++++++++++++++++++++++++++++++++++       @@@@@@@@@@@@@@@@@@@@@@@@@@@@@@@@@@@@@@@    ...",
"...   +++++++++++++++++++++++++++++++++++++++++++++++++++++++++++++++++++++       @@@@@@@@@@@@@@@@@@@@@@@@@@@@@@@@@@@@@@@    ...",
"...   +++++++++++++++++++++++++++++++++++++++++++++++++++++++++++++++++++++       @@@@@@@@@@@@@@@@@@@@@@@@@@@@@@@@@@@@@@@    ...",
"...   +++++++++++++++++++++++++++++++++++++++++++++++++++++++++++++++++++++       @@@@@@@@@@@@@@@@@@@@@@@@@@@@@@@@@@@@@@@    ...",
"...   +++++++++++++++++++++++++++++++++++++++++++++++++++++++++++++++++++++       @@@@@@@@@@@@@@@@@@@@@@@@@@@@@@@@@@@@@@@    ...",
"...   +++++++++++++++++++++++++++++++++++++++++++++++++++++++++++++++++++++       @@@@@@@@@@@@@@@@@@@@@@@@@@@@@@@@@@@@@@@    ...",
"...   +++++++++++++++++++++++++++++++++++++++++++++++++++++++++++++++++++++       @@@@@@@@@@@@@@@@@@@@@@@@@@@@@@@@@@@@@@@    ...",
"...   +++++++++++++++++++++++++++++++++++++++++++++++++++++++++++++++++++++       @@@@@@@@@@@@@@@@@@@@@@@@###@@@@@@@@@@@@    ...",
"...   +++++++++++++++++++++++++++++++++++++++++++++++++++++++++++++++++++++       @@@@@@@@@@@@@@@@@@@@@@@@###@@@@@@@@@@@@    ...",
"...   +++++++++++++++++++++++++++++++++++++++++++++++++++++++++++++++++++++       @@@@@@@@@@@@@@@@@@@@@@@@###@@@@@@@@@@@@    ...",
"...   +++++########################################++++++++++++++++++++++++       @@@@@@@@@@@@@@@@@@@@@@@@###@@@@@@@@@@@@    ...",
"...   +++++########################################++++++++++++++++++++++++       @@@@@@@@@@@@@@@@@@@@@@@@###@@@@@@@@@@@@    ...",
"...   +++++########################################++++++++++++++++++++++++       @@@@@@@@@@@@@@@@@@@@@@@@###@@@@@@@@@@@@    ...",
"...   +++++++++++++++++++++++++++++++++++++++++++++++++++++++++++++++++++++       @@@@@@@@@@@@@@@@@@@@@@@@@@@@@@@@@@@@@@@    ...",
"...   +++++++++++++++++++++++++++++++++++++++++++++++++++++++++++++++++++++       @@@@@@@@@@@@@@@@@@@@@@@@@@@@@@@@@@@@@@@    ...",
"...   +++++++++++++++++++++++++++++++++++++++++++++++++++++++++++++++++++++       @@@@@@@@@@@@@@@@@@@@@@@@@@@@@@@@@@@@@@@    ...",
"...   +++++++++++++++++++++++++++++++++++++++++++++++++++++++++++++++++++++       @@@@@@@@@@@@@@@@@@@@@@@@@@@@@@@@@@@@@@@    ...",
"...   +++++++++++++++++++++++++++++++++++++++++++++++++++++++++++++++++++++       @@@@@@@@@@@@@@@@@@@@@@@@@@@@@@@@@@@@@@@    ...",
"...   +++++++++++++++++++++++++++++++++++++++++++++++++++++++++++++++++++++       @@@@@@@@@@@@@@@@@@@@@@@@@@@@@@@@@@@@@@@    ...",
"...   +++++++++++++++++++++++++++++++++++++++++++++++++++++++++++++++++++++       @@@@@@@@@@@@@@@@@@@@@@@@@@@@@@@@@@@@@@@    ...",
"...   +++++++++++++++++++++++++++++++++++++++++++++++++++++++++++++++++++++       @@@@@@@@@@@@@@@@@@@@@@@@@@@@@@@@@@@@@@@    ...",
"...   +++++++++++++++++++++++++++++++++++++++++++++++++++++++++++++++++++++       @@@@@@@@@@@@@@@@@@@@@@@@@@@@@@@@@@@@@@@    ...",
"...   +++++++++++++++++++++++++++++++++++++++++++++++++++++++++++++++++++++       @@@@@@@@@@@@@@@@@@@@@@@@@@@@@@@@@@@@@@@    ...",
"...   +++++++++++++++++++++++++++++++++++++++++++++++++++++++++++++++++++++       @@@@@@@@@@@@@@@@@@@@@@@@@@@@@@@@@@@@@@@    ...",
"...   +++++++++++++++++++++++++++++++++++++++++++++++++++++++++++++++++++++       @@@@@@@@@@@@@@@@@@@@@@@@@@@@@@@@@@@@@@@    ...",
"...   +++++++++++++++++++++++++++++++++++++++++++++++++++++++++++++++++++++       @@@@@@@@@@@@@@@@@@@@@@@@@@@@@@@@@@@@@@@    ...",
"...   +++++++++++++++++++++++++++++++++++++++++++++++++++++++++++++++++++++       @@@@@@@@@@@@@@@@@@@@@@@@@@@@@@@@@@@@@@@    ...",
"...   +++++++++++++++++++++++++++++++++++++++++++++++++++++++++++++++++++++       @@@@@@@@@@@@@@@@@@@@@@@@@@@@@@@@@@@@@@@    ...",
"...   +++++++++++++++++++++++++++++++++++++++++++++++++++++++++++++++++++++       @@@@@@@@@@@@@@@@@@@@@@@@@@@@@@@@@@@@@@@    ...",
"...   +++++++++++++++++++++++++++++++++++++++++++++++++++++++++++++++++++++       @@@@@@@@@@@@@@@@@@@@@@@@@@@@@@@@@@@@@@@    ...",
"...   +++++++++++++++++++++++++++++++++++++++++++++++++++++++++++++++++++++       @@@@@@@@@@@@@@@@@@@@@@@@@@@@@@@@@@@@@@@    ...",
"...   +++++++++++++++++++++++++++++++++++++++++++++++++++++++++++++++++++++       @@@@@@@@@@@@@@@@@@@@@@@@@@@@@@@@@@@@@@@    ...",
"...   +++++++++++++++++++++++++++++++++++++++++++++++++++++++++++++++++++++       @@@@@@@@@@@@@@@@@@@@@@@@@@@@@@@@@@@@@@@    ...",
"...   +++++++++++++++++++++++++++++++++++++++++++++++++++++++++++++++++++++       @@@@@@@@@@@@@@@@@@@@@@@@@@@@@@@@@@@@@@@    ...",
"...   +++++++++++++++++++++++++++++++++++++++++++++++++++++++++++++++++++++       @@@@@@@@@#######################@@@@@@@    ...",
"...   +++++############################################++++++++++++++++++++       @@@@@@@@@#######################@@@@@@@    ...",
"...   +++++############################################++++++++++++++++++++       @@@@@@@@@#######################@@@@@@@    ...",
"...   +++++############################################++++++++++++++++++++       @@@@@@@@@@@@@@@@@@@@@@@@@@@@@@@@@@@@@@@    ...",
"...   +++++++++++++++++++++++++++++++++++++++++++++++++++++++++++++++++++++       @@@@@@@@@@@@@@@@@@@@@@@@@@@@@@@@@@@@@@@    ...",
"...   +++++++++++++++++++++++++++++++++++++++++++++++++++++++++++++++++++++       @@@@@@@@@@@@@@@@@@@@@@@@@@@@@@@@@@@@@@@    ...",
"...   +++++++++++++++++++++++++++++++++++++++++++++++++++++++++++++++++++++       @@@@@@@@@@@@@@@@@@@@@@@@@@@@@@@@@@@@@@@    ...",
"...   +++++++++++++++++++++++++++++++++++++++++++++++++++++++++++++++++++++       @@@@@@@@@@@@@@@@@@@@@@@@@@@@@@@@@@@@@@@    ...",
"...   +++++++++++++++++++++++++++++++++++++++++++++++++++++++++++++++++++++       @@@@@@@@@@@@@@@@@@@@@@@@@@@@@@@@@@@@@@@    ...",
"...   +++++++++++++++++++++++++++++++++++++++++++++++++++++++++++++++++++++       @@@@@@@@@@@@@@@@@@@@@@@@@@@@@@@@@@@@@@@    ...",
"...                                                                                                                          ...",
"...                                                                                                                          ...",
"...                                                                                                                          ...",
"................................................................................................................................",
"................................................................................................................................",
"................................................................................................................................"};
