/* XPM */
static char * be_bmp_mirror_xpm[] = {
"128 128 5 1",
" 	c None",
".	c #4848EC",
"+	c #0F0FD9",
"@	c #00007C",
"#	c #000000",
"                                                                                                                                ",
"                                                                                                                                ",
"                                                     ...+++@@@+++...                                                            ",
"                                                     ...+++@@@+++...                                                            ",
"                                                     ...+++@@@+++...                                                            ",
"                                                     ...+++@@@+++...                                                            ",
"                                                     ...+++@@@+++...                                                            ",
"                                                     ...+++@@@+++...                                                            ",
"                                                     ...+++@@@+++...                                                            ",
"                                                     ...+++@@@+++...                                                            ",
"                                                     ...+++@@@+++...                                                            ",
"                                                     ...+++@@@+++...                                                            ",
"                                                     ...+++@@@+++...                                                            ",
"                                                     ...+++@@@+++...                                                            ",
"                                                     ...+++@@@+++...                                                            ",
"                                                     ...+++@@@+++...                                                            ",
"                                                     ...+++@@@+++...                                                            ",
"                                                     ...+++@@@+++...                                                            ",
"                                                     ...+++@@@+++...                                                            ",
"                                                     ...+++@@@+++...                                                            ",
"                                                     ...+++@@@+++...                                                            ",
"                                                     ...+++@@@+++...                                                            ",
"                                                     ...+++@@@+++...                                                            ",
"                                                     ...+++@@@+++...                                                            ",
"                                                     ...+++@@@+++...                                                            ",
"                                                     ...+++@@@+++...                                                            ",
"                                                     ...+++@@@+++...                                                            ",
"                                                     ...+++@@@+++...                                                            ",
"                                                     ...+++@@@+++...                                                            ",
"                                                     ...+++@@@+++...                                                            ",
"                                                     ...+++@@@+++...                                                            ",
"                                                     ...+++@@@+++...                                                            ",
"                                                     ...+++@@@+++...                                                            ",
"                                                     ...+++@@@+++...                                                            ",
"                                                     ...+++@@@+++...                                                            ",
"                                                     ...+++@@@+++...                                                            ",
"                                                     ...+++@@@+++...                                                            ",
"                                                     ...+++@@@+++...                                                            ",
"                          ###                        ...+++@@@+++...                               ###                          ",
"                         ####                        ...+++@@@+++...                               ####                         ",
"                        #####                        ...+++@@@+++...                               #####                        ",
"                       ######                        ...+++@@@+++...                               ######                       ",
"                      #######                        ...+++@@@+++...                               #######                      ",
"                     ########                        ...+++@@@+++...                               ########                     ",
"                    #########                        ...+++@@@+++...                               #########                    ",
"                   ##########                        ...+++@@@+++...                               ##########                   ",
"                  ###########                        ...+++@@@+++...                               ###########                  ",
"                 ############                        ...+++@@@+++...                               ############                 ",
"                #############                        ...+++@@@+++...                               #############                ",
"               ##############                        ...+++@@@+++...                               ##############               ",
"              ###############                        ...+++@@@+++...                               ###############              ",
"             ################                        ...+++@@@+++...                               ################             ",
"            #################                        ...+++@@@+++...                               #################            ",
"           ##################                        ...+++@@@+++...                               ##################           ",
"          ###################                        ...+++@@@+++...                               ###################          ",
"         ####################                        ...+++@@@+++...                               ####################         ",
"        #####################                        ...+++@@@+++...                               #####################        ",
"       ######################                        ...+++@@@+++...                               ######################       ",
"      #######################                        ...+++@@@+++...                               #######################      ",
"     ######################################################################################################################     ",
"    ########################################################################################################################    ",
"   ##########################################################################################################################   ",
"   ##########################################################################################################################   ",
"   ##########################################################################################################################   ",
"    ########################################################################################################################    ",
"     ######################################################################################################################     ",
"      #######################                        ...+++@@@+++...                               #######################      ",
"       ######################                        ...+++@@@+++...                               ######################       ",
"        #####################                        ...+++@@@+++...                               #####################        ",
"         ####################                        ...+++@@@+++...                               ####################         ",
"          ###################                        ...+++@@@+++...                               ###################          ",
"           ##################                        ...+++@@@+++...                               ##################           ",
"            #################                        ...+++@@@+++...                               #################            ",
"             ################                        ...+++@@@+++...                               ################             ",
"              ###############                        ...+++@@@+++...                               ###############              ",
"               ##############                        ...+++@@@+++...                               ##############               ",
"                #############                        ...+++@@@+++...                               #############                ",
"                 ############                        ...+++@@@+++...                               ############                 ",
"                  ###########                        ...+++@@@+++...                               ###########                  ",
"                   ##########                        ...+++@@@+++...                               ##########                   ",
"                    #########                        ...+++@@@+++...                               #########                    ",
"                     ########                        ...+++@@@+++...                               ########                     ",
"                      #######                        ...+++@@@+++...                               #######                      ",
"                       ######                        ...+++@@@+++...                               ######                       ",
"                        #####                        ...+++@@@+++...                               #####                        ",
"                         ####                        ...+++@@@+++...                               ####                         ",
"                          ###                        ...+++@@@+++...                               ###                          ",
"                                                     ...+++@@@+++...                                                            ",
"                                                     ...+++@@@+++...                                                            ",
"                                                     ...+++@@@+++...                                                            ",
"                                                     ...+++@@@+++...                                                            ",
"                                                     ...+++@@@+++...                                                            ",
"                                                     ...+++@@@+++...                                                            ",
"                                                     ...+++@@@+++...                                                            ",
"                                                     ...+++@@@+++...                                                            ",
"                                                     ...+++@@@+++...                                                            ",
"                                                     ...+++@@@+++...                                                            ",
"                                                     ...+++@@@+++...                                                            ",
"                                                     ...+++@@@+++...                                                            ",
"                                                     ...+++@@@+++...                                                            ",
"                                                     ...+++@@@+++...                                                            ",
"                                                     ...+++@@@+++...                                                            ",
"                                                     ...+++@@@+++...                                                            ",
"                                                     ...+++@@@+++...                                                            ",
"                                                     ...+++@@@+++...                                                            ",
"                                                     ...+++@@@+++...                                                            ",
"                                                     ...+++@@@+++...                                                            ",
"                                                     ...+++@@@+++...                                                            ",
"                                                     ...+++@@@+++...                                                            ",
"                                                     ...+++@@@+++...                                                            ",
"                                                     ...+++@@@+++...                                                            ",
"                                                     ...+++@@@+++...                                                            ",
"                                                     ...+++@@@+++...                                                            ",
"                                                     ...+++@@@+++...                                                            ",
"                                                     ...+++@@@+++...                                                            ",
"                                                     ...+++@@@+++...                                                            ",
"                                                     ...+++@@@+++...                                                            ",
"                                                     ...+++@@@+++...                                                            ",
"                                                     ...+++@@@+++...                                                            ",
"                                                     ...+++@@@+++...                                                            ",
"                                                     ...+++@@@+++...                                                            ",
"                                                     ...+++@@@+++...                                                            ",
"                                                     ...+++@@@+++...                                                            ",
"                                                     ...+++@@@+++...                                                            ",
"                                                     ...+++@@@+++...                                                            ",
"                                                                                                                                ",
"                                                                                                                                ",
"                                                                                                                                "};
