/* XPM */
static char * be_bytman_xpm[] = {
"128 128 39 1",
" 	c None",
".	c #FFEB0E",
"+	c #F80505",
"@	c #DFCD0C",
"#	c #BFB00A",
"$	c #807507",
"%	c #605805",
"&	c #403A03",
"*	c #0101FF",
"=	c #9F9208",
"-	c #373202",
";	c #DAC80B",
">	c #595204",
",	c #4B4504",
"'	c #F20404",
")	c #810202",
"!	c #BD0303",
"~	c #0D0055",
"{	c #DE0404",
"]	c #460101",
"^	c #970303",
"/	c #CF0404",
"(	c #1C0000",
"_	c #F4E00D",
":	c #696005",
"<	c #988C08",
"[	c #D0BF0B",
"}	c #353002",
"|	c #E5D30C",
"1	c #4E4704",
"2	c #968A08",
"3	c #BC0303",
"4	c #E60404",
"5	c #4B0101",
"6	c #870202",
"7	c #B40303",
"8	c #180000",
"9	c #D60404",
"0	c #4D0101",
"................................................                                ................................................",
"................................................                                ................................................",
"................................................                                ................................................",
"................................................                                ................................................",
"................................................                                ................................................",
"................................................                                ++++++++++++++++++++++++++++++++++++++++++++++++",
"................................................                                ++++++++++++++++++++++++++++++++++++++++++++++++",
"................................................                                ++++++++++++++++++++++++++++++++++++++++++++++++",
"................................................                                ++++++++++++++++++++++++++++++++++++++++++++++++",
"................................................                                ++++++++++++++++++++++++++++++++++++++++++++++++",
"................................................                                ................................................",
"................................................                                ................................................",
"....................@#$$$#@.....................                                ................................................",
"...................@%&***&%@....................                                ................................................",
"..................@%*******%@...................                                ................................................",
"..................=*********=...................                                ++++++++++++++++++++++++++++++++++++++++++++++++",
"..................-*********-...................                                ++++++++++++++++++++++++++++++++++++++++++++++++",
"..................***********...................                                ++++++++++++++++++++++++++++++++++++++++++++++++",
"..................***********...................                                ++++++++++++++++++++++++++++++++++++++++++++++++",
"..................***********...................                                ++++++++++++++++++++++++++++++++++++++++++++++++",
"..................***********...................                                ................................................",
"..................***********...................                                ................................................",
"..................***********...................                                ...................@=&***&=@....................",
"..................***********...................                                ..................;>*******>;...................",
"..................***********...................                                .................;,*********,;..................",
"..................***********...................                                ++++++++++++++++')***********)'+++++++++++++++++",
"..................***********...................                                ++++++++++++++++!~***********~!+++++++++++++++++",
"..................***********...................                                +++++++++++++++{]*************]{++++++++++++++++",
"..................***********...................                                +++++++++++++++^***************^++++++++++++++++",
"..................***********...................                                ++++++++++++++/(***************(/+++++++++++++++",
"++++++++++++++++++***********+++++++++++++++++++                                ............._:*****************:_..............",
"++++++++++++++++++***********+++++++++++++++++++                                ............_<*******************<_.............",
"++++++++++++++++++***********+++++++++++++++++++                                ............[}*******************}[.............",
"++++++++++++++++++***********+++++++++++++++++++                                ...........|1*********************1|............",
"++++++++++++++++++***********+++++++++++++++++++                                ...........2***********************2............",
"++++++++++++++++++***********+++++++++++++++++++                                ++++++++++3*************************3+++++++++++",
"++++++++++++++++++***********+++++++++++++++++++                                +++++++++45*************************54++++++++++",
"++++++++++++++++++***********+++++++++++++++++++                                ++++++++'6***************************6'+++++++++",
"++++++++++++++++++***********+++++++++++++++++++                                +++++++'78***************************87'++++++++",
"++++++++++++++++++***********+++++++++++++++++++                                +++++++90*****************************09++++++++",
"++++++++++++++++++***********+++++++++++++++++++                                      ***********************************       ",
"++++++++++++++++++***********+++++++++++++++++++                                      ***********************************       ",
"++++++++++++++++++***********+++++++++++++++++++                                     *************************************      ",
"++++++++++++++++++***********+++++++++++++++++++                                    ***************************************     ",
"++++++++++++++++++***********+++++++++++++++++++                                   *****************************************    ",
"++++++++++++++++++***********+++++++++++++++++++                                  *******************************************   ",
"++++++++++++++++++***********+++++++++++++++++++                                  *******************************************   ",
"++++++++++++++++++***********+++++++++++++++++++                                 *********************************************  ",
"++++++++++++++++++***********+++++++++++++++++++                                 *********************************************  ",
"++++++++++++++++++***********+++++++++++++++++++                                 *********************************************  ",
"++++++++++++++++++***********+++++++++++++++++++                                 *********************************************  ",
"++++++++++++++++++***********+++++++++++++++++++                                 *********************************************  ",
"++++++++++++++++++***********+++++++++++++++++++                                 *********************************************  ",
"++++++++++++++++++***********+++++++++++++++++++                                 *********************************************  ",
"++++++++++++++++++***********+++++++++++++++++++                                 *********************************************  ",
"++++++++++++++++++***********+++++++++++++++++++                                  *******************************************   ",
"++++++++++++++++++***********+++++++++++++++++++                                   **************************       ********    ",
"++++++++++++++++++***********+++++++++++++++++++                                                  ***********                   ",
"++++++++++++++++++***********+++++++++++++++++++                                                  ***********                   ",
"++++++++++++++++++***********+++++++++++++++++++                                                  ***********                   ",
"                  ***********                                                                     ***********                   ",
"                  ***********                                                                     ***********                   ",
"                  ***********                                                                     ***********                   ",
"                  ***********                                                                     ***********                   ",
"                  ***********                                                                     ***********                   ",
"                  ***********                                                                     ***********                   ",
"                  ***********                                                                     ***********                   ",
"                  ***********                                                                     ***********                   ",
"                  ***********                                                   ++++++++++++++++++***********+++++++++++++++++++",
"                  ***********                                                   ++++++++++++++++++***********+++++++++++++++++++",
"                  ***********                                                   ++++++++++++++++++***********+++++++++++++++++++",
"   *****************************************                                    ++++++++++++++++++***********+++++++++++++++++++",
"  *******************************************                                   ++++++++++++++++++***********+++++++++++++++++++",
" *********************************************                                  ++++++++++++++++++***********+++++++++++++++++++",
" *********************************************                                  ++++++++++++++++++***********+++++++++++++++++++",
" *********************************************                                  ++++++++++++++++++***********+++++++++++++++++++",
" *********************************************                                  ++++++++++++++++++***********+++++++++++++++++++",
" *********************************************                                  ++++++++++++++++++***********+++++++++++++++++++",
" *********************************************                                  ++++++++++++++++++***********+++++++++++++++++++",
" *********************************************                                  ++++++++++++++++++***********+++++++++++++++++++",
" *********************************************                                  ++++++++++++++++++***********+++++++++++++++++++",
"  *******************************************                                   ++++++++++++++++++***********+++++++++++++++++++",
"  *******************************************                                   ++++++++++++++++++***********+++++++++++++++++++",
"   *****************************************                                    ++++++++++++++++++***********+++++++++++++++++++",
"    ***************************************                                     ++++++++++++++++++***********+++++++++++++++++++",
"     *************************************                                      ++++++++++++++++++***********+++++++++++++++++++",
"      ***********************************                                       ++++++++++++++++++***********+++++++++++++++++++",
"      ***********************************                                       ++++++++++++++++++***********+++++++++++++++++++",
"+++++++90*****************************09++++++++                                ++++++++++++++++++***********+++++++++++++++++++",
"+++++++'78***************************87'++++++++                                ++++++++++++++++++***********+++++++++++++++++++",
"++++++++'6***************************6'+++++++++                                ++++++++++++++++++***********+++++++++++++++++++",
"+++++++++45*************************54++++++++++                                ++++++++++++++++++***********+++++++++++++++++++",
"++++++++++3*************************3+++++++++++                                ++++++++++++++++++***********+++++++++++++++++++",
"...........2***********************2............                                ++++++++++++++++++***********+++++++++++++++++++",
"...........|1*********************1|............                                ++++++++++++++++++***********+++++++++++++++++++",
"............[}*******************}[.............                                ++++++++++++++++++***********+++++++++++++++++++",
"............_<*******************<_.............                                ++++++++++++++++++***********+++++++++++++++++++",
"............._:*****************:_..............                                ++++++++++++++++++***********+++++++++++++++++++",
"++++++++++++++/(***************(/+++++++++++++++                                ..................***********...................",
"+++++++++++++++^***************^++++++++++++++++                                ..................***********...................",
"+++++++++++++++{]*************]{++++++++++++++++                                ..................***********...................",
"++++++++++++++++!~***********~!+++++++++++++++++                                ..................***********...................",
"++++++++++++++++')***********)'+++++++++++++++++                                ..................***********...................",
".................;,*********,;..................                                ..................***********...................",
"..................;>*******>;...................                                ..................***********...................",
"...................@=&***&=@....................                                ..................***********...................",
"................................................                                ..................***********...................",
"................................................                                ..................***********...................",
"++++++++++++++++++++++++++++++++++++++++++++++++                                ..................***********...................",
"++++++++++++++++++++++++++++++++++++++++++++++++                                ..................***********...................",
"++++++++++++++++++++++++++++++++++++++++++++++++                                ..................***********...................",
"++++++++++++++++++++++++++++++++++++++++++++++++                                ..................-*********-...................",
"++++++++++++++++++++++++++++++++++++++++++++++++                                ..................=*********=...................",
"................................................                                ..................@%*******%@...................",
"................................................                                ...................@%&***&%@....................",
"................................................                                ....................@#$$$#@.....................",
"................................................                                ................................................",
"................................................                                ................................................",
"++++++++++++++++++++++++++++++++++++++++++++++++                                ................................................",
"++++++++++++++++++++++++++++++++++++++++++++++++                                ................................................",
"++++++++++++++++++++++++++++++++++++++++++++++++                                ................................................",
"++++++++++++++++++++++++++++++++++++++++++++++++                                ................................................",
"++++++++++++++++++++++++++++++++++++++++++++++++                                ................................................",
"................................................                                ................................................",
"................................................                                ................................................",
"................................................                                ................................................",
"................................................                                ................................................",
"................................................                                ................................................"};
