/* XPM */
static char * be_bmp_xpm[] = {
"128 128 3 1",
" 	c None",
".	c #000000",
"+	c #82743B",
"              .                   .                   .+++++++++++++++++++.                   .                   .             ",
"              .                   .                   .+++++++++++++++++++.                   .                   .             ",
"              .                   .                   .+++++++++++++++++++.                   .                   .             ",
"              .                   .                   .+++++++++++++++++++.                   .                   .             ",
"              .                   .                   .+++++++++++++++++++.                   .                   .             ",
"              .                   .                   .+++++++++++++++++++.                   .                   .             ",
"              .                   .                   .+++++++++++++++++++.                   .                   .             ",
"              .                   .                   .+++++++++++++++++++.                   .                   .             ",
"              .                   .                   .+++++++++++++++++++.                   .                   .             ",
"              .                   .                   .+++++++++++++++++++.                   .                   .             ",
"              .                   .                   .+++++++++++++++++++.                   .                   .             ",
"              .                   .                   .+++++++++++++++++++.                   .                   .             ",
"              .                   .                   .+++++++++++++++++++.                   .                   .             ",
"              .                   .                   .+++++++++++++++++++.                   .                   .             ",
"................................................................................................................................",
"              .                   .+++++++++++++++++++.                   .+++++++++++++++++++.                   .             ",
"              .                   .+++++++++++++++++++.                   .+++++++++++++++++++.                   .             ",
"              .                   .+++++++++++++++++++.                   .+++++++++++++++++++.                   .             ",
"              .                   .+++++++++++++++++++.                   .+++++++++++++++++++.                   .             ",
"              .                   .+++++++++++++++++++.                   .+++++++++++++++++++.                   .             ",
"              .                   .+++++++++++++++++++.                   .+++++++++++++++++++.                   .             ",
"              .                   .+++++++++++++++++++.                   .+++++++++++++++++++.                   .             ",
"              .                   .+++++++++++++++++++.                   .+++++++++++++++++++.                   .             ",
"              .                   .+++++++++++++++++++.                   .+++++++++++++++++++.                   .             ",
"              .                   .+++++++++++++++++++.                   .+++++++++++++++++++.                   .             ",
"              .                   .+++++++++++++++++++.                   .+++++++++++++++++++.                   .             ",
"              .                   .+++++++++++++++++++.                   .+++++++++++++++++++.                   .             ",
"              .                   .+++++++++++++++++++.                   .+++++++++++++++++++.                   .             ",
"              .                   .+++++++++++++++++++.                   .+++++++++++++++++++.                   .             ",
"              .                   .+++++++++++++++++++.                   .+++++++++++++++++++.                   .             ",
"              .                   .+++++++++++++++++++.                   .+++++++++++++++++++.                   .             ",
"              .                   .+++++++++++++++++++.                   .+++++++++++++++++++.                   .             ",
"              .                   .+++++++++++++++++++.                   .+++++++++++++++++++.                   .             ",
"              .                   .+++++++++++++++++++.                   .+++++++++++++++++++.                   .             ",
"................................................................................................................................",
"              .+++++++++++++++++++.                   .                   .                   .+++++++++++++++++++.             ",
"              .+++++++++++++++++++.                   .                   .                   .+++++++++++++++++++.             ",
"              .+++++++++++++++++++.                   .                   .                   .+++++++++++++++++++.             ",
"              .+++++++++++++++++++.                   .                   .                   .+++++++++++++++++++.             ",
"              .+++++++++++++++++++.                   .                   .                   .+++++++++++++++++++.             ",
"              .+++++++++++++++++++.                   .                   .                   .+++++++++++++++++++.             ",
"              .+++++++++++++++++++.                   .                   .                   .+++++++++++++++++++.             ",
"              .+++++++++++++++++++.                   .                   .                   .+++++++++++++++++++.             ",
"              .+++++++++++++++++++.                   .                   .                   .+++++++++++++++++++.             ",
"              .+++++++++++++++++++.                   .                   .                   .+++++++++++++++++++.             ",
"              .+++++++++++++++++++.                   .                   .                   .+++++++++++++++++++.             ",
"              .+++++++++++++++++++.                   .                   .                   .+++++++++++++++++++.             ",
"              .+++++++++++++++++++.                   .                   .                   .+++++++++++++++++++.             ",
"              .+++++++++++++++++++.                   .                   .                   .+++++++++++++++++++.             ",
"              .+++++++++++++++++++.                   .                   .                   .+++++++++++++++++++.             ",
"              .+++++++++++++++++++.                   .                   .                   .+++++++++++++++++++.             ",
"              .+++++++++++++++++++.                   .                   .                   .+++++++++++++++++++.             ",
"              .+++++++++++++++++++.                   .                   .                   .+++++++++++++++++++.             ",
"              .+++++++++++++++++++.                   .                   .                   .+++++++++++++++++++.             ",
"................................................................................................................................",
"              .+++++++++++++++++++.+++++++++++++++++++.+++++++++++++++++++.+++++++++++++++++++.+++++++++++++++++++.             ",
"              .+++++++++++++++++++.+++++++++++++++++++.+++++++++++++++++++.+++++++++++++++++++.+++++++++++++++++++.             ",
"              .+++++++++++++++++++.+++++++++++++++++++.+++++++++++++++++++.+++++++++++++++++++.+++++++++++++++++++.             ",
"              .+++++++++++++++++++.+++++++++++++++++++.+++++++++++++++++++.+++++++++++++++++++.+++++++++++++++++++.             ",
"              .+++++++++++++++++++.+++++++++++++++++++.+++++++++++++++++++.+++++++++++++++++++.+++++++++++++++++++.             ",
"              .+++++++++++++++++++.+++++++++++++++++++.+++++++++++++++++++.+++++++++++++++++++.+++++++++++++++++++.             ",
"              .+++++++++++++++++++.+++++++++++++++++++.+++++++++++++++++++.+++++++++++++++++++.+++++++++++++++++++.             ",
"              .+++++++++++++++++++.+++++++++++++++++++.+++++++++++++++++++.+++++++++++++++++++.+++++++++++++++++++.             ",
"              .+++++++++++++++++++.+++++++++++++++++++.+++++++++++++++++++.+++++++++++++++++++.+++++++++++++++++++.             ",
"              .+++++++++++++++++++.+++++++++++++++++++.+++++++++++++++++++.+++++++++++++++++++.+++++++++++++++++++.             ",
"              .+++++++++++++++++++.+++++++++++++++++++.+++++++++++++++++++.+++++++++++++++++++.+++++++++++++++++++.             ",
"              .+++++++++++++++++++.+++++++++++++++++++.+++++++++++++++++++.+++++++++++++++++++.+++++++++++++++++++.             ",
"              .+++++++++++++++++++.+++++++++++++++++++.+++++++++++++++++++.+++++++++++++++++++.+++++++++++++++++++.             ",
"              .+++++++++++++++++++.+++++++++++++++++++.+++++++++++++++++++.+++++++++++++++++++.+++++++++++++++++++.             ",
"              .+++++++++++++++++++.+++++++++++++++++++.+++++++++++++++++++.+++++++++++++++++++.+++++++++++++++++++.             ",
"              .+++++++++++++++++++.+++++++++++++++++++.+++++++++++++++++++.+++++++++++++++++++.+++++++++++++++++++.             ",
"              .+++++++++++++++++++.+++++++++++++++++++.+++++++++++++++++++.+++++++++++++++++++.+++++++++++++++++++.             ",
"              .+++++++++++++++++++.+++++++++++++++++++.+++++++++++++++++++.+++++++++++++++++++.+++++++++++++++++++.             ",
"              .+++++++++++++++++++.+++++++++++++++++++.+++++++++++++++++++.+++++++++++++++++++.+++++++++++++++++++.             ",
"................................................................................................................................",
"              .+++++++++++++++++++.                   .                   .                   .+++++++++++++++++++.             ",
"              .+++++++++++++++++++.                   .                   .                   .+++++++++++++++++++.             ",
"              .+++++++++++++++++++.                   .                   .                   .+++++++++++++++++++.             ",
"              .+++++++++++++++++++.                   .                   .                   .+++++++++++++++++++.             ",
"              .+++++++++++++++++++.                   .                   .                   .+++++++++++++++++++.             ",
"              .+++++++++++++++++++.                   .                   .                   .+++++++++++++++++++.             ",
"              .+++++++++++++++++++.                   .                   .                   .+++++++++++++++++++.             ",
"              .+++++++++++++++++++.                   .                   .                   .+++++++++++++++++++.             ",
"              .+++++++++++++++++++.                   .                   .                   .+++++++++++++++++++.             ",
"              .+++++++++++++++++++.                   .                   .                   .+++++++++++++++++++.             ",
"              .+++++++++++++++++++.                   .                   .                   .+++++++++++++++++++.             ",
"              .+++++++++++++++++++.                   .                   .                   .+++++++++++++++++++.             ",
"              .+++++++++++++++++++.                   .                   .                   .+++++++++++++++++++.             ",
"              .+++++++++++++++++++.                   .                   .                   .+++++++++++++++++++.             ",
"              .+++++++++++++++++++.                   .                   .                   .+++++++++++++++++++.             ",
"              .+++++++++++++++++++.                   .                   .                   .+++++++++++++++++++.             ",
"              .+++++++++++++++++++.                   .                   .                   .+++++++++++++++++++.             ",
"              .+++++++++++++++++++.                   .                   .                   .+++++++++++++++++++.             ",
"              .+++++++++++++++++++.                   .                   .                   .+++++++++++++++++++.             ",
"................................................................................................................................",
"              .+++++++++++++++++++.                   .                   .                   .+++++++++++++++++++.             ",
"              .+++++++++++++++++++.                   .                   .                   .+++++++++++++++++++.             ",
"              .+++++++++++++++++++.                   .                   .                   .+++++++++++++++++++.             ",
"              .+++++++++++++++++++.                   .                   .                   .+++++++++++++++++++.             ",
"              .+++++++++++++++++++.                   .                   .                   .+++++++++++++++++++.             ",
"              .+++++++++++++++++++.                   .                   .                   .+++++++++++++++++++.             ",
"              .+++++++++++++++++++.                   .                   .                   .+++++++++++++++++++.             ",
"              .+++++++++++++++++++.                   .                   .                   .+++++++++++++++++++.             ",
"              .+++++++++++++++++++.                   .                   .                   .+++++++++++++++++++.             ",
"              .+++++++++++++++++++.                   .                   .                   .+++++++++++++++++++.             ",
"              .+++++++++++++++++++.                   .                   .                   .+++++++++++++++++++.             ",
"              .+++++++++++++++++++.                   .                   .                   .+++++++++++++++++++.             ",
"              .+++++++++++++++++++.                   .                   .                   .+++++++++++++++++++.             ",
"              .+++++++++++++++++++.                   .                   .                   .+++++++++++++++++++.             ",
"              .+++++++++++++++++++.                   .                   .                   .+++++++++++++++++++.             ",
"              .+++++++++++++++++++.                   .                   .                   .+++++++++++++++++++.             ",
"              .+++++++++++++++++++.                   .                   .                   .+++++++++++++++++++.             ",
"              .+++++++++++++++++++.                   .                   .                   .+++++++++++++++++++.             ",
"              .+++++++++++++++++++.                   .                   .                   .+++++++++++++++++++.             ",
"................................................................................................................................",
"              .+++++++++++++++++++.                   .                   .                   .+++++++++++++++++++.             ",
"              .+++++++++++++++++++.                   .                   .                   .+++++++++++++++++++.             ",
"              .+++++++++++++++++++.                   .                   .                   .+++++++++++++++++++.             ",
"              .+++++++++++++++++++.                   .                   .                   .+++++++++++++++++++.             ",
"              .+++++++++++++++++++.                   .                   .                   .+++++++++++++++++++.             ",
"              .+++++++++++++++++++.                   .                   .                   .+++++++++++++++++++.             ",
"              .+++++++++++++++++++.                   .                   .                   .+++++++++++++++++++.             ",
"              .+++++++++++++++++++.                   .                   .                   .+++++++++++++++++++.             ",
"              .+++++++++++++++++++.                   .                   .                   .+++++++++++++++++++.             ",
"              .+++++++++++++++++++.                   .                   .                   .+++++++++++++++++++.             ",
"              .+++++++++++++++++++.                   .                   .                   .+++++++++++++++++++.             ",
"              .+++++++++++++++++++.                   .                   .                   .+++++++++++++++++++.             ",
"              .+++++++++++++++++++.                   .                   .                   .+++++++++++++++++++.             "};
