/* XPM */
static char * be_expand_xpm[] = {
"128 128 7 1",
" 	c None",
".	c #000000",
"+	c #0101FF",
"@	c #AB9393",
"#	c #EADD48",
"$	c #A49B35",
"%	c #F8FB05",
".....................             ...................           ....................      ++++++++++++++++++++++++++++++++++++++",
".....................             ...................           ....................       +++++++++++++++++++++++++++++++++++++",
".....................             ...................           ....................       +++++++++++++++++++++++++++++++++++++",
"                                                                                             +++++++++++++++++++++++++++++++++++",
"                                                                                              ++++++++++++++++++++++++++++++++++",
"                                                                                               +++++++++++++++++++++++++++++++++",
"                                                                                                ++++++++++++++++++++++++++++++++",
"                                                                                                 +++++++++++++++++++++++++++++++",
"                                                                                                  ++++++++++++++++++++++++++++++",
"                                                                                                   +++++++++++++++++++++++++++++",
"...                                                                                                 ++++++++++++++++++++++++++++",
"...                                                                                                  +++++++++++++++++++++++++++",
"...                                                                                                   ++++++++++++++++++++++++++",
"...                                                                                                    +++++++++++++++++++++++++",
"...                                                                                                     ++++++++++++++++++++++++",
"...                                                                                                      +++++++++++++++++++++++",
"...                                                                                                     ++++++++++++++++++++++++",
"...                                                                                                    +++++++++++++++++++++++++",
"...                                                                                                   ++++++++++++++++++++++++++",
"...                                                                                                  +++++++++++++++++++++++++++",
"...                                                                                                 ++++++++++++++++++++++++++++",
"...                                                                                                +++++++++++++++++++++++++++++",
"...                                                                                               +++++++++++++ ++++++++++++++++",
"                                                                                                 +++++++++++++   +++++++++++++++",
"                                                                                                +++++++++++++     ++++++++++++++",
"                                                                                               ++++++++++++        +++++++++++++",
"                                                                                              ++++++++++++          ++++++++++++",
"                                                                                             ++++++++++++            +++++++++++",
"                                                                                            ++++++++++++              ++++++++++",
"                                                                                           ++++++++++++                +++++++++",
"                                                                                          ++++++++++++                  ++++++++",
"                                                                                        +++++++++++++                    +++++++",
"                                                                                       +++++++++++++                      +++++.",
"...                                                                                   +++++++++++++                        +++++",
"...                                                                                  +++++++++++++                          ++++",
"...                                                                                 +++++++++++++                            +++",
"...                                                                                +++++++++++++                             .++",
"...                                                                               +++++++++++++                              ...",
"...                                                                              ++++++++++++                                ...",
"...                                                                             ++++++++++++                                 ...",
"...            @@@@@@@@@@@@@@@@@@@@@@@@@@@@@@@@@@@@@@@@@@@@@@@@@@@@@@@@@@@@@@@@++++++++++++                                  ...",
"...          @@@@@@@@@@@@@@@@@@@@@@@@@@@@@@@@@@@@@@@@@@@@@@@@@@@@@@@@@@@@@@@@@++++++++++++                                   ...",
"...         @@@@@@@@@@@@@@@@@@@@@@@@@@@@@@@@@@@@@@@@@@@@@@@@@@@@@@@@@@@@@@@@@++++++++++++                                       ",
"...        @@@@@@###########################################################++++++++++++                                        ",
"         @@@@@@############################################################++++++++++++                                         ",
"        @@@@@@############################################################++++++++++++                                          ",
"       @@@@@@############################################################++++++++++++@                                          ",
"     @@@@@@#############################################################++++++++++++@@                                          ",
"    @@@@@@#############################################################++++++++++++@@@                                          ",
"   @@@@@@#############################################################++++++++++++$@@@                                       ...",
" @@@@@@##############################################################++++++++++++$$@@@                                       ...",
"@@@@@@@@@@@@@@@@@@@@@@@@@@@@@@@@@@@@@@@@@@@@@@@@@@@@@@@@@@@@@@@@@@@@+++++++++++$$$$@@@                                       ...",
"@@@@@@@@@@@@@@@@@@@@@@@@@@@@@@@@@@@@@@@@@@@@@@@@@@@@@@@@@@@@@@@@@@@@++++++++++$$$$$@@@                                       ...",
"@@@@@@@@@@@@@@@@@@@@@@@@@@@@@@@@@@@@@@@@@@@@@@@@@@@@@@@@@@@@@@@@@@@@+++++++++$$$$$$@@@                                       ...",
"@@@%%%%%%%%%%%%%%%%%%%%%%%%%%%%%%%%%%%%%%%%%%%%%%%%%%%%%%%%%%%%%%%%%%%++++++$$$$$$$@@@                                       ...",
"@@@%%%%%%%%%%%%%%%%%%%%%%%%%%%%%%%%%%%%%%%%%%%%%%%%%%%%%%%%%%%%%%%%%%%%++++$$$$$$$$@@@                                       ...",
"@@@%%%%%%%%%%%%%%%%%%%%%%%%%%%%%%%%%%%%%%%%%%%%%%%%%%%%%%%%%%%%%%%%%%%%+++$$$$$$$$$@@@                                       ...",
"@@@%%%%%%%%%%%%%%%%%%%%%%%%%%%%%%%%%%%%%%%%%%%%%%%%%%%%%%%%%%%%%%%%%%%%@@@$$$$$$$$$@@@                                       ...",
"@@@%%%%%%%%%%%%%%%%%%%%%%%%%%%%%%%%%%%%%%%%%%%%%%%%%%%%%%%%%%%%%%%%%%%%@@@$$$$$$$$$@@@                                       ...",
"@@@%%%%%%%%%%%%%%%%%%%%%%%%%%%%%%%%%%%%%%%%%%%%%%%%%%%%%%%%%%%%%%%%%%%%@@@$$$$$$$$$@@@                                       ...",
"@@@%%%%%%%%%%%%%%%%%%%%%%%%%%%%%%%%%%%%%%%%%%%%%%%%%%%%%%%%%%%%%%%%%%%%@@@$$$$$$$$$@@@                                       ...",
"@@@%%%%%%%%%%%%%%%%%%%%%%%%%%%%%%%%%%%%%%%%%%%%%%%%%%%%%%%%%%%%%%%%%%%%@@@$$$$$$$$$@@@                                       ...",
"@@@%%%%%%%%%%%%%%%%%%%%%%%%%%%%%%%%%%%%%%%%%%%%%%%%%%%%%%%%%%%%%%%%%%%%@@@$$$$$$$$$@@@                                          ",
"@@@%%%%%%%%%%%%%%%%%%%%%%%%%%%%%%%%%%%%%%%%%%%%%%%%%%%%%%%%%%%%%%%%%%%%@@@$$$$$$$$$@@@                                          ",
"@@@%%%%%%%%%%%%%%%%%%%%%%%%%%%%%%%%%%%%%%%%%%%%%%%%%%%%%%%%%%%%%%%%%%%%@@@$$$$$$$$$@@@                                          ",
"@@@%%%%%%%%%%%%%%%%%%%%%%%%%%%%%%%%%%%%%%%%%%%%%%%%%%%%%%%%%%%%%%%%%%%%@@@$$$$$$$$$@@@                                          ",
"@@@%%%%%%%%%%%%%%%%%%%%%%%%%%%%%%%%%%%%%%%%%%%%%%%%%%%%%%%%%%%%%%%%%%%%@@@$$$$$$$$$@@@                                          ",
"@@@%%%%%%%%%%%%%%%%%%%%%%%%%%%%%%%%%%%%%%%%%%%%%%%%%%%%%%%%%%%%%%%%%%%%@@@$$$$$$$$$@@@                                          ",
"@@@%%%%%%%%%%%%%%%%%%%%%%%%%%%%%%%%%%%%%%%%%%%%%%%%%%%%%%%%%%%%%%%%%%%%@@@$$$$$$$$$@@@                                          ",
"@@@%%%%%%%%%%%%%%%%%%%%%%%%%%%%%%%%%%%%%%%%%%%%%%%%%%%%%%%%%%%%%%%%%%%%@@@$$$$$$$$$@@@                                       ...",
"@@@%%%%%%%%%%%%%%%%%%%%%%%%%%%%%%%%%%%%%%%%%%%%%%%%%%%%%%%%%%%%%%%%%%%%@@@$$$$$$$$$@@@                                       ...",
"@@@%%%%%%%%%%%%%%%%%%%%%%%%%%%%%%%%%%%%%%%%%%%%%%%%%%%%%%%%%%%%%%%%%%%%@@@$$$$$$$$$@@@                                       ...",
"@@@%%%%%%%%%%%%%%%%%%%%%%%%%%%%%%%%%%%%%%%%%%%%%%%%%%%%%%%%%%%%%%%%%%%%@@@$$$$$$$$$@@@                                       ...",
"@@@%%%%%%%%%%%%%%%%%%%%%%%%%%%%%%%%%%%%%%%%%%%%%%%%%%%%%%%%%%%%%%%%%%%%@@@$$$$$$$$$@@@                                       ...",
"@@@%%%%%%%%%%%%%%%%%%%%%%%%%%%%%%%%%%%%%%%%%%%%%%%%%%%%%%%%%%%%%%%%%%%%@@@$$$$$$$$$@@@                                       ...",
"@@@%%%%%%%%%%%%%%%%%%%%%%%%%%%%%%%%%%%%%%%%%%%%%%%%%%%%%%%%%%%%%%%%%%%%@@@$$$$$$$$$@@@                                       ...",
"@@@%%%%%%%%%%%%%%%%%%%%%%%%%%%%%%%%%%%%%%%%%%%%%%%%%%%%%%%%%%%%%%%%%%%%@@@$$$$$$$$$@@@                                       ...",
"@@@%%%%%%%%%%%%%%%%%%%%%%%%%%%%%%%%%%%%%%%%%%%%%%%%%%%%%%%%%%%%%%%%%%%%@@@$$$$$$$$$@@@                                       ...",
"@@@%%%%%%%%%%%%%%%%%%%%%%%%%%%%%%%%%%%%%%%%%%%%%%%%%%%%%%%%%%%%%%%%%%%%@@@$$$$$$$$$@@@                                       ...",
"@@@%%%%%%%%%%%%%%%%%%%%%%%%%%%%%%%%%%%%%%%%%%%%%%%%%%%%%%%%%%%%%%%%%%%%@@@$$$$$$$$$@@@                                       ...",
"@@@%%%%%%%%%%%%%%%%%%%%%%%%%%%%%%%%%%%%%%%%%%%%%%%%%%%%%%%%%%%%%%%%%%%%@@@$$$$$$$$$@@@                                       ...",
"@@@%%%%%%%%%%%%%%%%%%%%%%%%%%%%%%%%%%%%%%%%%%%%%%%%%%%%%%%%%%%%%%%%%%%%@@@$$$$$$$$$@@@                                       ...",
"@@@%%%%%%%%%%%%%%%%%%%%%%%%%%%%%%%%%%%%%%%%%%%%%%%%%%%%%%%%%%%%%%%%%%%%@@@$$$$$$$$$@@@                                       ...",
"@@@%%%%%%%%%%%%%%%%%%%%%%%%%%%%%%%%%%%%%%%%%%%%%%%%%%%%%%%%%%%%%%%%%%%%@@@$$$$$$$$$@@@                                          ",
"@@@%%%%%%%%%%%%%%%%%%%%%%%%%%%%%%%%%%%%%%%%%%%%%%%%%%%%%%%%%%%%%%%%%%%%@@@$$$$$$$$$@@@                                          ",
"@@@%%%%%%%%%%%%%%%%%%%%%%%%%%%%%%%%%%%%%%%%%%%%%%%%%%%%%%%%%%%%%%%%%%%%@@@$$$$$$$$$@@@                                          ",
"@@@%%%%%%%%%%%%%%%%%%%%%%%%%%%%%%%%%%%%%%%%%%%%%%%%%%%%%%%%%%%%%%%%%%%%@@@$$$$$$$$$@@@                                          ",
"@@@%%%%%%%%%%%%%%%%%%%%%%%%%%%%%%%%%%%%%%%%%%%%%%%%%%%%%%%%%%%%%%%%%%%%@@@$$$$$$$$$@@@                                          ",
"@@@%%%%%%%%%%%%%%%%%%%%%%%%%%%%%%%%%%%%%%%%%%%%%%%%%%%%%%%%%%%%%%%%%%%%@@@$$$$$$$$$@@@                                          ",
"@@@%%%%%%%%%%%%%%%%%%%%%%%%%%%%%%%%%%%%%%%%%%%%%%%%%%%%%%%%%%%%%%%%%%%%@@@$$$$$$$$$@@@                                          ",
"@@@%%%%%%%%%%%%%%%%%%%%%%%%%%%%%%%%%%%%%%%%%%%%%%%%%%%%%%%%%%%%%%%%%%%%@@@$$$$$$$$$@@@                                          ",
"@@@%%%%%%%%%%%%%%%%%%%%%%%%%%%%%%%%%%%%%%%%%%%%%%%%%%%%%%%%%%%%%%%%%%%%@@@$$$$$$$$$@@@                                          ",
"@@@%%%%%%%%%%%%%%%%%%%%%%%%%%%%%%%%%%%%%%%%%%%%%%%%%%%%%%%%%%%%%%%%%%%%@@@$$$$$$$$$@@@                                          ",
"@@@%%%%%%%%%%%%%%%%%%%%%%%%%%%%%%%%%%%%%%%%%%%%%%%%%%%%%%%%%%%%%%%%%%%%@@@$$$$$$$$$@@@                                          ",
"@@@%%%%%%%%%%%%%%%%%%%%%%%%%%%%%%%%%%%%%%%%%%%%%%%%%%%%%%%%%%%%%%%%%%%%@@@$$$$$$$$$@@@                                          ",
"@@@%%%%%%%%%%%%%%%%%%%%%%%%%%%%%%%%%%%%%%%%%%%%%%%%%%%%%%%%%%%%%%%%%%%%@@@$$$$$$$$$@@@                                          ",
"@@@%%%%%%%%%%%%%%%%%%%%%%%%%%%%%%%%%%%%%%%%%%%%%%%%%%%%%%%%%%%%%%%%%%%%@@@$$$$$$$$$@@@                                          ",
"@@@%%%%%%%%%%%%%%%%%%%%%%%%%%%%%%%%%%%%%%%%%%%%%%%%%%%%%%%%%%%%%%%%%%%%@@@$$$$$$$$$@@@                                          ",
"@@@%%%%%%%%%%%%%%%%%%%%%%%%%%%%%%%%%%%%%%%%%%%%%%%%%%%%%%%%%%%%%%%%%%%%@@@$$$$$$$$$@@@                                          ",
"@@@%%%%%%%%%%%%%%%%%%%%%%%%%%%%%%%%%%%%%%%%%%%%%%%%%%%%%%%%%%%%%%%%%%%%@@@$$$$$$$$$@@@                                          ",
"@@@%%%%%%%%%%%%%%%%%%%%%%%%%%%%%%%%%%%%%%%%%%%%%%%%%%%%%%%%%%%%%%%%%%%%@@@$$$$$$$$$@@@                                          ",
"@@@%%%%%%%%%%%%%%%%%%%%%%%%%%%%%%%%%%%%%%%%%%%%%%%%%%%%%%%%%%%%%%%%%%%%@@@$$$$$$$$$@@@                                       ...",
"@@@%%%%%%%%%%%%%%%%%%%%%%%%%%%%%%%%%%%%%%%%%%%%%%%%%%%%%%%%%%%%%%%%%%%%@@@$$$$$$$$$@@@                                       ...",
"@@@%%%%%%%%%%%%%%%%%%%%%%%%%%%%%%%%%%%%%%%%%%%%%%%%%%%%%%%%%%%%%%%%%%%%@@@$$$$$$$$$@@@                                       ...",
"@@@%%%%%%%%%%%%%%%%%%%%%%%%%%%%%%%%%%%%%%%%%%%%%%%%%%%%%%%%%%%%%%%%%%%%@@@$$$$$$$$$@@@                                       ...",
"@@@%%%%%%%%%%%%%%%%%%%%%%%%%%%%%%%%%%%%%%%%%%%%%%%%%%%%%%%%%%%%%%%%%%%%@@@$$$$$$$$$@@@                                       ...",
"@@@%%%%%%%%%%%%%%%%%%%%%%%%%%%%%%%%%%%%%%%%%%%%%%%%%%%%%%%%%%%%%%%%%%%%@@@$$$$$$$$$@@@                                       ...",
"@@@%%%%%%%%%%%%%%%%%%%%%%%%%%%%%%%%%%%%%%%%%%%%%%%%%%%%%%%%%%%%%%%%%%%%@@@$$$$$$$$$@@@                                       ...",
"@@@%%%%%%%%%%%%%%%%%%%%%%%%%%%%%%%%%%%%%%%%%%%%%%%%%%%%%%%%%%%%%%%%%%%%@@@$$$$$$$$$@@@                                       ...",
"@@@%%%%%%%%%%%%%%%%%%%%%%%%%%%%%%%%%%%%%%%%%%%%%%%%%%%%%%%%%%%%%%%%%%%%@@@$$$$$$$$$@@@                                       ...",
"@@@%%%%%%%%%%%%%%%%%%%%%%%%%%%%%%%%%%%%%%%%%%%%%%%%%%%%%%%%%%%%%%%%%%%%@@@$$$$$$$$$@@@                                       ...",
"@@@%%%%%%%%%%%%%%%%%%%%%%%%%%%%%%%%%%%%%%%%%%%%%%%%%%%%%%%%%%%%%%%%%%%%@@@$$$$$$$$$@@@                                       ...",
"@@@%%%%%%%%%%%%%%%%%%%%%%%%%%%%%%%%%%%%%%%%%%%%%%%%%%%%%%%%%%%%%%%%%%%%@@@$$$$$$$$@@@@                                       ...",
"@@@%%%%%%%%%%%%%%%%%%%%%%%%%%%%%%%%%%%%%%%%%%%%%%%%%%%%%%%%%%%%%%%%%%%%@@@$$$$$$$@@@@@                                       ...",
"@@@%%%%%%%%%%%%%%%%%%%%%%%%%%%%%%%%%%%%%%%%%%%%%%%%%%%%%%%%%%%%%%%%%%%%@@@$$$$$$@@@@@@                                       ...",
"@@@%%%%%%%%%%%%%%%%%%%%%%%%%%%%%%%%%%%%%%%%%%%%%%%%%%%%%%%%%%%%%%%%%%%%@@@$$$$$@@@@@ @                                       ...",
"@@@%%%%%%%%%%%%%%%%%%%%%%%%%%%%%%%%%%%%%%%%%%%%%%%%%%%%%%%%%%%%%%%%%%%%@@@$$$$@@@@@                                             ",
"@@@%%%%%%%%%%%%%%%%%%%%%%%%%%%%%%%%%%%%%%%%%%%%%%%%%%%%%%%%%%%%%%%%%%%%@@@$$$@@@@@@                                             ",
"@@@%%%%%%%%%%%%%%%%%%%%%%%%%%%%%%%%%%%%%%%%%%%%%%%%%%%%%%%%%%%%%%%%%%%%@@@$$$@@@@@                                              ",
"@@@%%%%%%%%%%%%%%%%%%%%%%%%%%%%%%%%%%%%%%%%%%%%%%%%%%%%%%%%%%%%%%%%%%%%@@@$$@@@@@                                               ",
"@@@%%%%%%%%%%%%%%%%%%%%%%%%%%%%%%%%%%%%%%%%%%%%%%%%%%%%%%%%%%%%%%%%%%%%@@@$@@@@@                                                ",
"@@@%%%%%%%%%%%%%%%%%%%%%%%%%%%%%%%%%%%%%%%%%%%%%%%%%%%%%%%%%%%%%%%%%%%%@@@@@@@@                                                 ",
"@@@%%%%%%%%%%%%%%%%%%%%%%%%%%%%%%%%%%%%%%%%%%%%%%%%%%%%%%%%%%%%%%%%%%%%@@@@@@@                                               ...",
"@@@%%%%%%%%%%%%%%%%%%%%%%%%%%%%%%%%%%%%%%%%%%%%%%%%%%%%%%%%%%%%%%%%%%%%@@@@@@                                                ...",
"@@@@@@@@@@@@@@@@@@@@@@@@@@@@@@@@@@@@@@@@@@@@@@@@@@@@@@@@@@@@@@@@@@@@@@@@@@@@                                                 ...",
"@@@@@@@@@@@@@@@@@@@@@@@@@@@@@@@@@@@@@@@@@@@@@@@@@@@@@@@@@@@@@@@@@@@@@@@@@@@     ..........         .............     ...........",
"@@@@@@@@@@@@@@@@@@@@@@@@@@@@@@@@@@@@@@@@@@@@@@@@@@@@@@@@@@@@@@@@@@@@@@@@@@      ..........         .............     ...........",
"                                                                                ..........         .............     ..........."};
