/* XPM */
static char * be_stencil_xpm[] = {
"128 128 2 1",
" 	c None",
".	c #0F0FD9",
"                 ..............................................................................................                 ",
"             ......................................................................................................             ",
"           ..........................................................................................................           ",
"         ..............................................................................................................         ",
"        ................................................................................................................        ",
"       ..................................................................................................................       ",
"      ....................................................................................................................      ",
"     ......................................................................................................................     ",
"    ........................................................................................................................    ",
"   ..........................................................................................................................   ",
"   ..........................................................................................................................   ",
"  ............................................................................................................................  ",
"  ............................................................................................................................  ",
" .............................................................................................................................  ",
" ...........                                 .................................................................................. ",
" ...........                                 ...........................................        ............................... ",
" ...........                                 ........................................              ............................ ",
"............                                 ......................................                  .......................... ",
"............                                 .....................................                    ..........................",
"............                                 ....................................                      .........................",
"............                                 ...................................                        ........................",
"............                                 ..................................                          .......................",
"............                                 .................................                            ......................",
"............                                 .................................                            ......................",
"............                                 ................................                              .....................",
"............                                 ................................                              .....................",
"............                                 ................................                              .....................",
"............                                 ...............................                                ....................",
"............                                 ...............................                                ....................",
"............                                 ...............................                                ....................",
"............                                 ...............................                                ....................",
"............                                 ...............................                                ....................",
"............                                 ...............................                                ....................",
"............                                 ...............................                                ....................",
"............                                 ...............................                                ....................",
"............                                 ................................                              .....................",
"............                                 ................................                              .....................",
"............                                 ................................                              .....................",
"............                                 .................................                            ......................",
"............                                 .................................                            ......................",
"............                                 ..................................                          .......................",
"............                                 ...................................                        ........................",
"............                                 ....................................                      .........................",
"............                                 .....................................                    ..........................",
"............                                 ......................................                  ...........................",
"............                                 ........................................              .............................",
"............                                 ...........................................        ................................",
"................................................................................................................................",
"................................................................................................................................",
"................................................................................................................................",
"................................................................................................................................",
"................................................................................................................................",
"................................................................................................................................",
"................................................................................................................................",
"................................................................................................................................",
"................................................................................................................................",
"................................................................................................................................",
"................................................................................................................................",
"................................................................................................................................",
"................................................................................................................................",
"................................................................................................................................",
"...........................................................................................   ..................................",
"..........................................................................................     .................................",
".........................................................................................       ................................",
"........................................................................................         ...............................",
".....................                  ................................................           ..............................",
".....................                  ...............................................             .............................",
".....................                  ..............................................               ............................",
".....................                  .............................................                 ...........................",
".....................                  ............................................                   ..........................",
".....................                  ...........................................                     .........................",
".....................                  ..........................................                       ........................",
".....................                  .........................................                         .......................",
".....................                  ........................................                           ......................",
".....................                  .......................................                             .....................",
".....................                  ......................................                               ....................",
".....................                  .....................................                                 ...................",
".....................                  ....................................                                   ..................",
".....................                  ...................................                                     .................",
".....................                  ..................................                                       ................",
".....................                  .................................                                         ...............",
"........                                             ..................                                           ..............",
"........                                             .................                                             .............",
"........                                             .................                                              ............",
"........                                             .................                                             .............",
"........                                             ..................                                           ..............",
"........                                             ...................                                         ...............",
"........                                             ....................                                       ................",
"........                                             .....................                                     .................",
"........                                             ......................                                   ..................",
"........                                             .......................                                 ...................",
"........                                             ........................                               ....................",
"........                                             .........................                             .....................",
"........                                             ..........................                           ......................",
"........                                             ...........................                         .......................",
".....................                  ..........................................                       ........................",
".....................                  ...........................................                     .........................",
".....................                  ............................................                   ..........................",
".....................                  .............................................                 ...........................",
".....................                  ..............................................               ............................",
".....................                  ...............................................             .............................",
".....................                  ................................................           ..............................",
".....................                  .................................................         ...............................",
".....................                  ..................................................       ................................",
".....................                  ...................................................     .................................",
".....................                  ....................................................   ..................................",
".....................                  .........................................................................................",
".....................                  .........................................................................................",
".....................                  .........................................................................................",
".....................                  .........................................................................................",
" ....................                  .........................................................................................",
" .............................................................................................................................. ",
" .............................................................................................................................. ",
" .............................................................................................................................. ",
"  ............................................................................................................................  ",
"  ............................................................................................................................  ",
"  ............................................................................................................................  ",
"   ..........................................................................................................................   ",
"   ..........................................................................................................................   ",
"    ........................................................................................................................    ",
"     ......................................................................................................................     ",
"      ....................................................................................................................      ",
"       ..................................................................................................................       ",
"        ................................................................................................................        ",
"         ..............................................................................................................         ",
"           ..........................................................................................................           ",
"             ......................................................................................................             ",
"                 ..............................................................................................                 "};
