/* XPM */
static char * erase_xpm[] = {
"128 128 9 1",
" 	c None",
".	c #000000",
"+	c #FFFFFF",
"@	c #612727",
"#	c #C9C3C3",
"$	c #EFE8E8",
"%	c #A7ABCF",
"&	c #DECECE",
"*	c #887373",
"                                                                                                                                ",
"                                                                                                                                ",
"                                                                                                                                ",
"                                                                                              ...                               ",
"                                                                                             .....                              ",
"                                                                                           ........                             ",
"                                                                                         ...........                            ",
"                                                                                       ........+.....                           ",
"                                                                                     ........++++....                           ",
"                                                                                    .......+++++++....                          ",
"                                                                                  .......+++++++++......                        ",
"                                                                                .......++++++++++++......                       ",
"                                                                              ........++++++++++++++......                      ",
"                                                                            ........+++++++++++++++++.......                    ",
"                                                                          ........++++++++++++++++++++......                    ",
"                                                                        ........+++++++++++++++++++++++......                   ",
"                                                                       .......++++++++++++++++++++++++++......                  ",
"                                                                     .......+++++++++++++++++++++++++++++......                 ",
"                                                                   .......++++++++++++++++++++++++++++++++.....                 ",
"                                                                 ........+++++++++++++++++++++++++++++++++.......               ",
"                                                               ........++++++++++++++++++++++++++++++++++++.......              ",
"                                                             ........+++++++++++++++++++++++++++++++++++++++......              ",
"                                                           ........++++++++++++++++++++++++++++++++++++++++++......             ",
"                                                          .......+++++++++++++++++++++++++++++++++++++++++++++.......           ",
"                                                       ........++++++++++++++++++++++++++++++++++++++++++++++++......           ",
"                                                     @........++++++++++++++++++++++++++++++++++++++++++++++++++......          ",
"                                                   @........+++++++++++++++++++++++++++++++++++++++++++++++++++++......         ",
" .##     +                                        ........++++++++++++++++++++++++++++++++++++++++++++++++++++++++......        ",
" .###                                           .......+++++++++++++++++++++++++++++++++++++++++++++++++++++++++++......        ",
" .###                                         ........+++++++++++++++++++++++++++++++++++++++++++++++++++++++++++++......       ",
" .###$                                      ........%%++++++++++++++++++++++++++++++++++++++++++++++++++++++++++++++......      ",
" .###$$$                                   .......%%%%%++++++++++++++++++++++++++++++++++++++++++++++++++++++++++++++.....      ",
" .###$$$++.                              .......%%%%%%%%+++++++++++++++++++++++++++++++++++++++++++++++++++++++++++.......      ",
" .###$$$++.@                           ........%%%%%%%%%%++++++++++++++++++++++++++++++++++++++++++++++++++++++++.........      ",
" .###$$$++.@     @                 ..........%%%%%%%%%%%%%+++++++++++++++++++++++++++++++++++++++++++++++++++++...........      ",
" .###$$$++.@                       ........%%%%%%%%%%%%%%%%+++++++++++++++++++++++++++++++++++++++++++++++++++.......&&...      ",
" .###$$$++.@                     ........%%%%%%%%%%%%%%%%%%%++++++++++++++++++++++++++++++++++++++++++++++++.......&&&&...      ",
" .###$$$++.@@                   .......%%%%%%%%%%%%%%%%%%%%%++++++++++++++++++++++++++++++++++++++++++++++.......&&&&&&...      ",
" .###$$$++.@@                @.......%%%%%%%%%%%%%%%%%%%%%%%%++++++++++++++++++++++++++++++++++++++++++++.......&&&&&&&...      ",
" .###$$$++.@@           @  @.......%%%%%%%%%%%%%%%%%%%%%%%%%%%+++++++++++++++++++++++++++++++++++++++++.......&&&&&&&&&...      ",
" .###$$$++.@@           @@........%%%%%%%%%%%%%%%%%%%%%%%%%%%%%++++++++++++++++++++++++++++++++++++++.......&&&&&&&&&&&...      ",
" .###$$$++.@@          @........%%%%%%%%%%%%%%%%%%%%%%%%%%%%%%%%++++++++++++++++++++++++++++++++++++.......&&&&&&&&&&&&...      ",
" .###$$$++.@@        @........%%%%%%%%%%%%%%%%%%%%%%%%%%%%%%%%%%%+++++++++++++++++++++++++++++++++.......&&&&&&&&&&&&&&...      ",
" .###$$$++.@@        .......%%%%%%%%%%%%%%%%%%%%%%%%%%%%%%%%%%%%%%++++++++++++++++++++++++++++++.......&&&&&&&&&&&&&&&&...      ",
" .###$$$++.@@@      ......%%%%%%%%%%%%%%%%%%%%%%%%%%%%%%%%%%%%%%%%%++++++++++++++++++++++++++++.......&&&&&&&&&&&&&&&&&...      ",
" .###$$$++.@@@      ....%%%%%%%%%%%%%%%%%%%%%%%%%%%%%%%%%%%%%%%%%%%%+++++++++++++++++++++++++.......&&&&&&&&&&&&&&&&&&&...      ",
" .###$$$++.@@@   @@.....%%%%%%%%%%%%%%%%%%%%%%%%%%%%%%%%%%%%%%%%%%%%%++++++++++++++++++++++.......&&&&&&&&&&&&&&&&&&&&&...      ",
" .###$$$++.@@@     ......%%%%%%%%%%%%%%%%%%%%%%%%%%%%%%%%%%%%%%%%%%%%%++++++++++++++++++++.......&&&&&&&&&&&&&&&&&&&&.....      ",
" .###$$$++.@@@     .......%%%%%%%%%%%%%%%%%%%%%%%%%%%%%%%%%%%%%%%%%%%%++++++++++++++++++.......&&&&&&&&&&&&&&&&&&&&.......      ",
" .###$$$++.@@@     ........%%%%%%%%%%%%%%%%%%%%%%%%%%%%%%%%%%%%%%%%%%%%+++++++++++++++.......&&&&&&&&&&&&&&&&&&&&&.......       ",
" .###$$$++.@@@     ...%.....%%%%%%%%%%%%%%%%%%%%%%%%%%%%%%%%%%%%%%%%%%%%+++++++++++++.......&&&&&&&&&&&&&&&&&&&&.......         ",
" ..........@@@     ...%%.....%%%%%%%%%%%%%%%%%%%%%%%%%%%%%%%%%%%%%%%%%%%%++++++++++.......&&&&&&&&&&&&&&&&&&&&.......           ",
"          .@@@     ...%%%.....%%%%%%%%%%%%%%%%%%%%%%%%%%%%%%%%%%%%%%%%%%%%++++++++......&&&&&&&&&&&&&&&&&&&&........            ",
"          .@@@@    ...%%%%.....%%%%%%%%%%%%%%%%%%%%%%%%%%%%%%%%%%%%%%%%%%%%+++++.......&&&&&&&&&&&&&&&&&&&&.......              ",
"          .@@@@@   ...%%%%%.....%%%%%%%%%%%%%%%%%%%%%%%%%%%%%%%%%%%%%%%%%%%%++.......&&&&&&&&&&&&&&&&&&&&.......                ",
"          .@@@@@   ...%%%%%%.....%%%%%%%%%%%%%%%%%%%%%%%%%%%%%%%%%%%%%%%%%%%+.......&&&&&&&&&&&&&&&&&&&.......                  ",
"          .@@@@@   ...%%%%%%%.....%%%%%%%%%%%%%%%%%%%%%%%%%%%%%%%%%%%%%%%%%.......&&&&&&&&&&&&&&&&&&&&.......                   ",
"          .@@@@@   ....%%%%%%%.....%%%%%%%%%%%%%%%%%%%%%%%%%%%%%%%%%%%%%%.......&&&&&&&&&&&&&&&&&&&&.......                     ",
"          .@@@@@   .....%%%%%%%.....%%%%%%%%%%%%%%%%%%%%%%%%%%%%%%%%%%%%.......&&&&&&&&&&&&&&&&&&&.......                       ",
"          .@@@@@   ......%%%%%%%....%%%%%%%%%%%%%%%%%%%%%%%%%%%%%%%%%%.......&&&&&&&&&&&&&&&&&&&........                        ",
"          .@@@@@@  @@....%%%%%%%%....%%%%%%%%%%%%%%%%%%%%%%%%%%%%%%%......%%%&&&&&&&&&&&&&&&&&&.......                          ",
"          .@@@@@@@@  #....%%%%%%%.....%%%%%%%%%%%%%%%%%%%%%%%%%%%%%.......%%%&&&&&&&&&&&&&&&&.......                            ",
" ..........@@@@@@@@  #.....%%%%%%%.....%%%%%%%%%%%%%%%%%%%%%%%%%........%%%%%&&&&&&&&&&&&&&.......                              ",
" .###$$$++.@@@@@@@@  ##.....%%%%%%%.....%%%%%%%%%%%%%%%%%%%%%%%.......%%%%%%%&&&&&&&&&&&&&.......                               ",
" .###$$$++.@@@@@@@@####*.....%%%%%%%.....%%%%%%%%%%%%%%%%%%%%%.......%%%%%%%%&&&&&&&&&&&.......                                 ",
" .###$$$++.@@@@@@@@####  .....%%%%%%%.....%%%%%%%%%%%%%%%%%%.......%%%%%%%%%%&&&&&&&&&.......                                   ",
" .###$$$++.@@@@@@@#####  *....%%%%%%%%.....%%%%%%%%%%%%%%%.......%%%%%%%%%%%%&&&&&&&........                                    ",
" .###$$$++.@@@@@@@#####****....%%%%%%%%.....%%%%%%%%%%%%%.......%%%%%%%%%%%%%&&&&&&.......                                      ",
" .###$$$++.@@@@@@@#####**   ....%%%%%%%%.....%%%%%%%%%%.......%%%%%%%%%%%%%%%&&&&.......                                        ",
" .###$$$++.@@@@@@@#####**   .....%%%%%%%%.....%%%%%%%.......%%%%%%%%%%%%%%%%%&&.......                                          ",
" .###$$$++.@@@@@@######*** **.....%%%%%%%%.....%%%%%.......%%%%%%%%%%%%%%%%%%&.......                                           ",
" .###$$$++.@@@@@@######*******.....%%%%%%%%.....%%.......%%%%%%%%%%%%%%%%%%%.......                                             ",
" .###$$$++.@@@@@@######*****   ....%%%%%%%%%............%%%%%%%%%%%%%%%%%%%%.....                                               ",
" .###$$$++.@@@@@@######*****   *....%%%%%%%%%.........%%%%%%%%%%%%%%%%%%........                                                ",
" .###$$$++.@@@@@@######****** **.....%%%%%%%%%......%%%%%%%%%%%%%%%%%%%.......                                                  ",
" .###$$$++.@@@@@@######**********.....%%%%%%%%%...%%%%%%%%%%%%%%%%%%%.......                                                    ",
" .###$$$++.@@@@@@######***********.....%%%%%%%%...%%%%%%%%%%%%%%%%%.......                                                      ",
" .###$$$++.@@@@@@######*********   .....%%%%%%%...%%%%%%%%%%%%%%%%.......                                                       ",
" .###$$$++.@@@@@@######*********   *....%%%%%%%...%%%%%%%%%%%%%%.......                                                         ",
" .###$$$++.@@@@@@######***********   ....%%%%%%...%%%%%%%%%%%%.......                                                           ",
" .###$$$++.@@@@@@@#####***********   .....%%%%%...%%%%%%%%%%........                                                            ",
" .###$$$++.@@@@@@@#####***********   *.....%%%%...%%%%%%%%%.......                                                              ",
" .###$$$++.@@@@@@@#####************  **.....%%%...%%%%%%%........                                                               ",
" .###$$$++.@@@@@@@#####************  ***.....%%...%%%%%.......                                                                  ",
" .###$$$++.@@@@@@@@####**************  **....%%...%%%%.......                                                                   ",
" .###$$$++.@@@@@@@@####**************  ***....%...%%.......                                                                     ",
" .###$$$++.@@@@@@@@####**************      ..............+                                                                      ",
" .###$$$++.@@@@@@@@@###****************     ............                                                                        ",
" ..........@@@@@@@@@###*****************    ..........@                                                                         ",
"          .@@@@@@@@@@##******************    .......                                                                            ",
"          .@@@@@@@@@@##*******************      ..@                                                                             ",
"          .@@@@@@@@@@@#********************      @                                                                              ",
"          .@@@@@@@@@@@@#####################                                                                                    ",
"          .@@@@@@@@@@@@######################  @@     @.                                                                        ",
"          .@@@@@@@@@@@@@####################@@@@@@   @@.                                                                        ",
"          .@@@@@@@@@@@@@@##################@@@@@@@@@@@@.                                                                        ",
"          .@@@@@@@@@@@@@@@@##############@@@@@@@@@@@@@@.                                                                        ",
" ..........@@@@@@@@@@@@@@@@@############@@@@@@@@@@@@@@@..........                                                               ",
" .###$$$++.@@@@@@@@@@@@@@@@@@@@######@@@@@@@@@@@@@@@@@@.++$$$###.                                                               ",
" .###$$$++.@@@@@@@@@@@@@@@@@@@@@@@@@@@@@@@@@@@@@@@@@@@@.++$$$###.                                                               ",
" .###$$$++.@@@@@@@@@@@@@@@@@@@@@@@@@@@@@@@@@@@@@@@@@@@@.++$$$###.                                                               ",
" .###$$$++.@@@@@@@@@@@@@@@@@@@@@@@@@@@@@@@@@@@@@@@@@@@@.++$$$###.                                                               ",
" .###$$$++.@@@@@@@@@@@@@@@@@@@@@@@@@@@@@@@@@@@@@@@@@@@@.++$$$###.                                                               ",
" .###$$$++.@@@@@@@@@@@@@@@@@@@@@@@@@@@@@@@@@@@@@@@@@@@@.++$$$###.                                                               ",
" .###$$$++.@@@@@@@@@@@@@@@@@@@@@@@@@@@@@@@@@@@@@@@@@@@@.++$$$###.                                                               ",
" .###$$$++.@@@@@@@@@@@@@@@@@@@@@@@@@@@@@@@@@@@@@@@@@@@@.++$$$###.                                                               ",
" .###$$$++.@@@@@@@@@@@@@@@@@@@@@@@@@@@@@@@@@@@@@@@@@@@@.++$$$###.                                                               ",
" .###$$$++.@@@@@@@@@@@@@@@@@@@@@@@@@@@@@@@@@@@@@@@@@@@@.++$$$###.                                                               ",
" .###$$$++.@@@@@@@@@@@@@@@@@@@@@@@@@@@@@@@@@@@@@@@@@@@@.++$$$###.                                                               ",
" .###$$$++.@@@@@@@@@@@@@@@@@@@@@@@@@@@@@@@@@@@@@@@@@@@@.++$$$###.                                                               ",
" .###$$$++.@@@@@@@@@@@@@@@@@@@@@@@@@@@@@@@@@@@@@@@@@@@@.++$$$###.                                                               ",
" .###$$$++.@@@@@@@@@@@@@@@@@@@@@@@@@@@@@@@@@@@@@@@@@@@@.++$$$###.                                                               ",
" .###$$$++.@@@@@@@@@@@@@@@@@@@@@@@@@@@@@@@@@@@@@@@@@@@@.++$$$###.                                                               ",
" .###$$$++.@@@@@@@@@@@@@@@@@@@@@@@@@@@@@@@@@@@@@@@@@@@@.++$$$###.                                                               ",
" .###$$$++.@@@@@@@@@@@@@@@@@@@@@@@@@@@@@@@@@@@@@@@@@@@@.++$$$###.                                                               ",
" .###$$$++.@@@@@@@@@@@@@@@@@@@@@@@@@@@@@@@@@@@@@@@@@@@@.++$$$###.                                                               ",
" .###$$$++.@@@@@@@@@@@@@@@@@@@@@@@@@@@@@@@@@@@@@@@@@@@@.++$$$###.                                                               ",
" .###$$$++.@@@@@@@@@@@@@@@@@@@@@@@@@@@@@@@@@@@@@@@@@@@@.++$$$###.                                                               ",
" .###$$$++.@@@@@@@@@@@@@@@@@@@@@@@@@@@@@@@@@@@@@@@@@@@@.++$$$###.                                                               ",
" .###$$$++.@@@@@@@@@@@@@@@@@@@@@@@@@@@@@@@@@@@@@@@@@@@@.++$$$###.                                                               ",
" .###$$$++.@@@@@@@@@@@@@@@@@@@@@@@@@@@@@@@@@@@@@@@@@@@@.++$$$###.                                                               ",
" .###$$$++.@@@@@@@@@@@@@@@@@@@@@@@@@@@@@@@@@@@@@@@@@@@@.++$$$###.                                                               ",
" .###$$$++.@@@@@@@@@@@@@@@@@@@@@@@@@@@@@@@@@@@@@@@@@@@@.++$$$###.                                                               ",
" ..........@@@@@@@@@@@@@@@@@@@@@@@@@@@@@@@@@@@@@@@@@@@@..........                                                               ",
"          .@@@@@@@@@@@@@@@@@@@@@@@@@@@@@@@@@@@@@@@@@@@@.                                                                        ",
"          .@@@@@@@@@@@@@@@@@@@@@@@@@@@@@@@@@@@@@@@@@@@@.                                                                        ",
"          .@@@@@@@@@@@@@@@@@@@@@@@@@@@@@@@@@@@@@@@@@@@@.                                                                        ",
"          ..............................................                                                                        "};
