/* XPM */
static char * read_xpm[] = {
"128 128 11 1",
" 	c None",
".	c #000000",
"+	c #FFFFFF",
"@	c #612727",
"#	c #9B2F2F",
"$	c #F3ECEC",
"%	c #C9C3C3",
"&	c #EFE8E8",
"*	c #191917",
"=	c #FFEB0E",
"-	c #887373",
"                                                                                                                                ",
"                                                                                                                                ",
"                                                                                                                                ",
"                                                                                                                                ",
"                                                                            ...........................                         ",
"                                                                            ............................                        ",
"                                                                            .............................                       ",
"                                                                            ...+++++++++++++++++++++......                      ",
"                                                                            ...+++++++++++++++++++++.......                     ",
"         ..............................................                     ...+++++++++++++++++++++........                    ",
"         .@@@@@@@@@@@@.####################.@@@@@@@@@@.                     ...+++++++++++++++++++++...$.....                   ",
"         .@@@@@@@@@@@@.####################.@@@@@@@@@@.                     ...+++++++++++++++++++++...$$.....                  ",
"         .@@@@@@@@@@@@.####################.@@@@@@@@@@.                     ...+++++++++++++++++++++...$$$.....                 ",
"..........@@@@@@@@@@@@.####################.@@@@@@@@@@..........            ...+++++++++++++++++++++...$$$$.....                ",
".%%%&&&++.@@@@@@@@@@@@.####################.@@@@@@@@@@.++&&&%%%.        *   ...+++++++++++++++++++++...$$$$$.....               ",
".%%%&&&++.@@@@@@@@@@@@.####################.@@@@@@@@@@.++&&&%%%.        **  ...+++++++++++++++++++++...$$$$$$.....              ",
".%%%&&&++.@@@@@@@@@@@@.####################.@@@@@@@@@@.++&&&%%%.        *** ...+++++++++++++++++++++...$$$$$$$.....             ",
".%%%&&&++.@@@@@@@@@@@@.####################.@@@@@@@@@@.++&&&%%%.        ****...+++++++++++++++++++++...$$$$$$$$.....            ",
".%%%&&&++.@@@@@@@@@@@@.####################.@@@@@@@@@@.++&&&%%%.        ****...+++++++++++++++++++++...$$$$$$$$$.....           ",
".%%%&&&++.@@@@@@@@@@@@.####################.@@@@@@@@@@.++&&&%%%.        *****..+++++++++++++++++++++...$$$$$$$$$$.....          ",
".%%%&&&++.@@@@@@@@@@@@.####################.@@@@@@@@@@.++&&&%%%.        ******.+++++++++++++++++++++...$$$$$$$$$$$.....         ",
".%%%&&&++.@@@@@@@@@@@@.####################.@@@@@@@@@@.++&&&%%%.        ******.+++++++++++++++++++++...$$$$$$$$$$$$.....        ",
".%%%&&&++.@@@@@@@@@@@@......................@@@@@@@@@@.++&&&%%%.        *******+++++++++++++++++++++...$$$$$$$$$$$$$.....       ",
".%%%&&&++.@@@@@@@@@@@@@@@@@@@@@@@@@@@@@@@@@@@@@@@@@@@@.++&&&%%%.        ********++++++++++++++++++++...$$$$$$$$$$$$$$.....      ",
".%%%&&&++.@@@@@@@@@@@@@@@@@@@@@@@@@@@@@@@@@@@@@@@@@@@@.++&&&%%%.        ********++++++++++++++++++++...$$$$$$$$$$$$$$$.....     ",
".%%%&&&++.@@@@@@@@@@@@@@@@@@@@@@@@@@@@@@@@@@@@@@@@@@@@.++&&&%%%.        *********+++++++++++++++++++...$$$$$$$$$$$$$$$$.....    ",
".%%%&&&++.@@@@@@@@@@@@@@@@@@@@@@@@@@@@@@@@@@@@@@@@@@@@.++&&&%%%.        **=*******++++++++++++++++++...$$$$$$$$$$$$$$$$$.....   ",
".%%%&&&++.@@@@@@@@@@@@@@@@@@@@@@@@@@@@@@@@@@@@@@@@@@@@.++&&&%%%.        **==******++++++++++++++++++...$$$$$$$$$$$$$$$$$$.....  ",
".%%%&&&++.@@@@@@@@@@@@@@@@@@@@@@@@@@@@@@@@@@@@@@@@@@@@.++&&&%%%.        **==*******+++++++++++++++++...$$$$$$$$$$$$$$$$$$$..... ",
".%%%&&&++.@@@@@@@@@@@@@@@@@@@@@@@@@@@@@@@@@@@@@@@@@@@@.++&&&%%%.        **===*******++++++++++++++++............................",
".%%%&&&++.@@@@@@@@@@@@@@@@@@@@@@@@@@@@@@@@@@@@@@@@@@@@.++&&&%%%.        **====******++++++++++++++++............................",
".%%%&&&++.@@@@@@@@@@@@@@@@@@@@@@@@@@@@@@@@@@@@@@@@@@@@.++&&&%%%.        **=====******+++++++++++++++............................",
".%%%&&&++.@@@@@@@@@@@@@@@@@@@@@@@@@@@@@@@@@@@@@@@@@@@@.++&&&%%%.        **=====*******+++++++++++++++++++++++++++++++++++++++...",
".%%%&&&++.@@@@@@@@@@@@@@@@@@@@@@@@@@@@@@@@@@@@@@@@@@@@.++&&&%%%.        **======******+++++++++++++++++++++++++++++++++++++++...",
".%%%&&&++.@@@@@@@@@@@@@@@@@@@@@@@@@@@@@@@@@@@@@@@@@@@@.++&&&%%%.        **=======******++++++++++++++++++++++++++++++++++++++...",
".%%%&&&++.@@@@@@@@@@@@@@@@@@@@@@@@@@@@@@@@@@@@@@@@@@@@.++&&&%%%.        **========******+++++++++++++++++++++++++++++++++++++...",
".%%%&&&++.@@@@@@@@@@@@@@@@@@@@@@@@@@@@@@@@@@@@@@@@@@@@.++&&&%%%.        **========******+++++++++++++++++++++++++++++++++++++...",
".%%%&&&++.@@@@@@@@@@@@@@@@@@@@@@@@@@@@@@@@@@@@@@@@@@@@.++&&&%%%.        **=========******++++++++++++++++++++++++++++++++++++...",
".%%%&&&++.@@@@@@@@@@@@@@@@@@@@@@@@@@@@@@@@@@@@@@@@@@@@.++&&&%%%.        **==========******+++++++++++++++++++++++++++++++++++...",
"..........@@@@@@@@@@@@@@@@@@@@%%%%%%@@@***********************************==========******+++++++++++++++++++++++++++++++++++...",
"         .@@@@@@@@@@@@@@@@@%%%%%%%%%%%%***********************************===========******++++++++++++++++++++++++++++++++++...",
"         .@@@@@@@@@@@@@@@@%%%%%%%%%%%%%***********************************============******+++++++++++++++++++++++++++++++++...",
"         .@@@@@@@@@@@@@@%%%%%%%%%%%%%%%***=============================================*****............................+++++...",
"         .@@@@@@@@@@@@@%%%%%%%%%%%%%%%%***=============================================******++++++++++++++++++++++++++++++++...",
"         .@@@@@@@@@@@@%%%%%%%%%%%%%%%%%***==============================================******+++++++++++++++++++++++++++++++...",
"         .@@@@@@@@@@@@%%%%%%%%%%%%%%%%%***===============================================*****+++++++++++++++++++++++++++++++...",
"         .@@@@@@@@@@@%%%%%%%%%%%%%%%%%%***================================================*****++++++++++++++++++++++++++++++...",
"         .@@@@@@@@@@%%%%%%%%%%%%%%%%%%%***================================================******+++++++++++++++++++++++++++++...",
"         .@@@@@@@@@@%%-----------------***=================================================*****+++++++++++++++++++++++++++++...",
"         .@@@@@@@@@%%%-----------------***==================================================*****++++++++++++++++++++++++++++...",
"..........@@@@@@@@@%%%-----------------***===================================================*****+++++++++++++++++++++++++++...",
".%%%&&&++.@@@@@@@@%%%%-----------------***===================================================*****+++++++++++++++++++++++++++...",
".%%%&&&++.@@@@@@@@%%%%-----------------***====================================================*****++++++++++++++++++++++++++...",
".%%%&&&++.@@@@@@@@%%%%-----------------***=====================================================*****......................+++...",
".%%%&&&++.@@@@@@@%%%%%-----------------***=====================================================*****+++++++++++++++++++++++++...",
".%%%&&&++.@@@@@@@%%%%%-----------------***======================================================*****++++++++++++++++++++++++...",
".%%%&&&++.@@@@@@@%%%%%-----------------***=======================================================*****+++++++++++++++++++++++...",
".%%%&&&++.@@@@@@@%%%%%-----------------***========================================================****+++++++++++++++++++++++...",
".%%%&&&++.@@@@@@%%%%%%-----------------***========================================================*****++++++++++++++++++++++...",
".%%%&&&++.@@@@@@%%%%%%-----------------***=========================================================*****+++++++++++++++++++++...",
".%%%&&&++.@@@@@@%%%%%%-----------------***==========================================================****+++++++++++++++++++++...",
".%%%&&&++.@@@@@@%%%%%%-----------------***===========================================================****++++++++++++++++++++...",
".%%%&&&++.@@@@@@%%%%%%-----------------***===========================================================*****+++++++++++++++++++...",
".%%%&&&++.@@@@@@%%%%%%-----------------***============================================================****+++++++++++++++++++...",
".%%%&&&++.@@@@@@%%%%%%-----------------***===========================================================******++++........++++++...",
".%%%&&&++.@@@@@@%%%%%%-----------------***===========================================================*****+++++++++++++++++++...",
".%%%&&&++.@@@@@@%%%%%%-----------------***==========================================================******+++++++++++++++++++...",
".%%%&&&++.@@@@@@%%%%%%-----------------***=========================================================******++++++++++++++++++++...",
".%%%&&&++.@@@@@@@%%%%%-----------------***=========================================================*****+++++++++++++++++++++...",
".%%%&&&++.@@@@@@@%%%%%-----------------***========================================================*****++++++++++++++++++++++...",
".%%%&&&++.@@@@@@@%%%%%-----------------***=======================================================******++++++++++++++++++++++...",
".%%%&&&++.@@@@@@@%%%%%-----------------***=======================================================*****+++++++++++++++++++++++...",
".%%%&&&++.@@@@@@@@%%%%-----------------***======================================================*****++++++++++++++++++++++++...",
".%%%&&&++.@@@@@@@@%%%%-----------------***=====================================================*****....................+++++...",
".%%%&&&++.@@@@@@@@%%%%-----------------***=====================================================*****+++++++++++++++++++++++++...",
".%%%&&&++.@@@@@@@@@%%%-----------------***====================================================*****++++++++++++++++++++++++++...",
"..........@@@@@@@@@%%%-----------------***===================================================*****+++++++++++++++++++++++++++...",
"         .@@@@@@@@@@%%-----------------***===================================================*****+++++++++++++++++++++++++++...",
"         .@@@@@@@@@@%%-----------------***==================================================*****++++++++++++++++++++++++++++...",
"         .@@@@@@@@@@@%-----------------***=================================================*****+++++++++++++++++++++++++++++...",
"         .@@@@@@@@@@@@%%%%%%%%%%%%%%%%%***=================================================****++++++++++++++++++++++++++++++...",
"         .@@@@@@@@@@@@%%%%%%%%%%%%%%%%%***================================================*****++++++++++++++++++++++++++++++...",
"         .@@@@@@@@@@@@@%%%%%%%%%%%%%%%%***===============================================*****............................+++...",
"         .@@@@@@@@@@@@@@%%%%%%%%%%%%%%%***===============================================****++++++++++++++++++++++++++++++++...",
"         .@@@@@@@@@@@@@@@@%%%%%%%%%%%%%************************************=============****+++++++++++++++++++++++++++++++++...",
"..........@@@@@@@@@@@@@@@@@%%%%%%%%%%%%************************************============*****+++++++++++++++++++++++++++++++++...",
".%%%&&&++.@@@@@@@@@@@@@@@@@@@@%%%%%%@@@************************************============****++++++++++++++++++++++++++++++++++...",
".%%%&&&++.@@@@@@@@@@@@@@@@@@@@@@@@@@@@@@@@@@@@@@@@@@@@.++&&&%%%.        ***===========****+++++++++++++++++++++++++++++++++++...",
".%%%&&&++.@@@@@@@@@@@@@@@@@@@@@@@@@@@@@@@@@@@@@@@@@@@@.++&&&%%%.        ***==========*****+++++++++++++++++++++++++++++++++++...",
".%%%&&&++.@@@@@@@@@@@@@@@@@@@@@@@@@@@@@@@@@@@@@@@@@@@@.++&&&%%%.        ***==========****++++++++++++++++++++++++++++++++++++...",
".%%%&&&++.@@@@@@@@@@@@@@@@@@@@@@@@@@@@@@@@@@@@@@@@@@@@.++&&&%%%.        ***=========****+++++++++++++++++++++++++++++++++++++...",
".%%%&&&++.@@@@@@@@@@@@@@@@@@@@@@@@@@@@@@@@@@@@@@@@@@@@.++&&&%%%.        ***========****..................................++++...",
".%%%&&&++.@@@@@@@@@@@@@@@@@@@@@@@@@@@@@@@@@@@@@@@@@@@@.++&&&%%%.        ***========****++++++++++++++++++++++++++++++++++++++...",
".%%%&&&++.@@@@@@@@@@@@@@@@@@@@@@@@@@@@@@@@@@@@@@@@@@@@.++&&&%%%.        ***=======****+++++++++++++++++++++++++++++++++++++++...",
".%%%&&&++.@@@@@@@@@@@@@@@@@@@@@@@@@@@@@@@@@@@@@@@@@@@@.++&&&%%%.        ***======****++++++++++++++++++++++++++++++++++++++++...",
".%%%&&&++.@@@@@@@@@@@@@@@@@@@@@@@@@@@@@@@@@@@@@@@@@@@@.++&&&%%%.        ***======***+++++++++++++++++++++++++++++++++++++++++...",
".%%%&&&++.@@@@@@@@@@@@@@@@@@@@@@@@@@@@@@@@@@@@@@@@@@@@.++&&&%%%.        ***=====****+++++++++++++++++++++++++++++++++++++++++...",
".%%%&&&++.@@@@@@@@@@@@@@@@@@@@@@@@@@@@@@@@@@@@@@@@@@@@.++&&&%%%.        ***====****++++++++++++++++++++++++++++++++++++++++++...",
".%%%&&&++.@@@@@@@@@@@@@@@@@@@@@@@@@@@@@@@@@@@@@@@@@@@@.++&&&%%%.        ***====***+++++++++++++++++++++++++++++++++++++++++++...",
".%%%&&&++.@@@@@@@@@@@@@@@@@@@@@@@@@@@@@@@@@@@@@@@@@@@@.++&&&%%%.        ***===****+++++++++++++++++++++++++++++++++++++++++++...",
".%%%&&&++.@@@@@@@@@@@@@@@@@@@@@@@@@@@@@@@@@@@@@@@@@@@@.++&&&%%%.        ***==****++++....................................++++...",
".%%%&&&++.@@@@@@@@@@@@@@@@@@@@@@@@@@@@@@@@@@@@@@@@@@@@.++&&&%%%.        ***==***+++++++++++++++++++++++++++++++++++++++++++++...",
".%%%&&&++.@@@@@@@@@@@@@@@@@@@@@@@@@@@@@@@@@@@@@@@@@@@@.++&&&%%%.        ***=***++++++++++++++++++++++++++++++++++++++++++++++...",
".%%%&&&++.@@@@@@@@@@@@@@@@@@@@@@@@@@@@@@@@@@@@@@@@@@@@.++&&&%%%.        *******++++++++++++++++++++++++++++++++++++++++++++++...",
".%%%&&&++.@@@@@@@@@@@@@@@@@@@@@@@@@@@@@@@@@@@@@@@@@@@@.++&&&%%%.        ******.++++++++++++++++++++++++++++++++++++++++++++++...",
".%%%&&&++.@@@@@@@@@@@@@@@@@@@@@@@@@@@@@@@@@@@@@@@@@@@@.++&&&%%%.        *****..++++++++++++++++++++++++++++++++++++++++++++++...",
".%%%&&&++.@@@@@@@@@@@@@@@@@@@@@@@@@@@@@@@@@@@@@@@@@@@@.++&&&%%%.        ****...++++++++++++++++++++++++++++++++++++++++++++++...",
".%%%&&&++.@@@@@@@@@@@@@@@@@@@@@@@@@@@@@@@@@@@@@@@@@@@@.++&&&%%%.        ****...++++++++++++++++++++++++++++++++++++++++++++++...",
".%%%&&&++.@@@@@@@@@@@@@@@@@@@@@@@@@@@@@@@@@@@@@@@@@@@@.++&&&%%%.        *** ...++++++++++++++++++++++++++++++++++++++++++++++...",
".%%%&&&++.@@@@@@@@@@@@@@@@@@@@@@@@@@@@@@@@@@@@@@@@@@@@.++&&&%%%.        **  ...++++++++++++++++++++++++++++++++++++++++++++++...",
".%%%&&&++.@@@@@@@@@@@@@@@@@@@@@@@@@@@@@@@@@@@@@@@@@@@@.++&&&%%%.        *   ...+++++.....................................++++...",
"..........@@@@@@@@@@@@@@@@@@@@@@@@@@@@@@@@@@@@@@@@@@@@..........            ...++++++++++++++++++++++++++++++++++++++++++++++...",
"         .@@@@@@@@@@@@@@@@@@@@@@@@@@@@@@@@@@@@@@@@@@@@.                     ...++++++++++++++++++++++++++++++++++++++++++++++...",
"         .@@@@@@@@@@@@@@@@@@@@@@@@@@@@@@@@@@@@@@@@@@@@.                     ...++++++++++++++++++++++++++++++++++++++++++++++...",
"         .@@@@@@@@@@@@@@@@@@@@@@@@@@@@@@@@@@@@@@@@@@@@.                     ...++++++++++++++++++++++++++++++++++++++++++++++...",
"         ..............................................                     ...++++++++++++++++++++++++++++++++++++++++++++++...",
"                                                                            ...++++++++++++++++++++++++++++++++++++++++++++++...",
"                                                                            ...++++++++++++++++++++++++++++++++++++++++++++++...",
"                                                                            ...++++++++++++++++++++++++++++++++++++++++++++++...",
"                                                                            ....................................................",
"                                                                            ....................................................",
"                                                                            ....................................................",
"                                                                                                                                ",
"                                                                                                                                ",
"                                                                                                                                ",
"                                                                                                                                ",
"                                                                                                                                ",
"                                                                                                                                "};
