/* XPM */
static char * signature_xpm[] = {
"128 128 9 1",
" 	c None",
".	c #000000",
"+	c #612727",
"@	c #9B2F2F",
"#	c #C9C3C3",
"$	c #EFE8E8",
"%	c #FFFFFF",
"&	c #FFEB0E",
"*	c #887373",
"                                                                                                                                ",
"                                                                                                                                ",
"                                                                                                                                ",
"                                                                                                                                ",
"                                                       ...........                                                              ",
"                                                    .........................                                                   ",
"                                                   ................................                                             ",
"                                                   .......      ......................                                          ",
"                                                   ....                   .................                                     ",
"         ..............................................                         ..............                                  ",
"         .++++++++++++.@@@@@@@@@@@@@@@@@@@@.++++++++++.                             ...........                                 ",
"         .++++++++++++.@@@@@@@@@@@@@@@@@@@@.++++++++++.                                 ........  .......                       ",
"         .++++++++++++.@@@@@@@@@@@@@@@@@@@@.++++++++++.                                    ................                     ",
"..........++++++++++++.@@@@@@@@@@@@@@@@@@@@.+++++....+..........                            ................                    ",
".###$$$%%.++++++++++++.@@@@@@@@@@@@@@@@@@@@.+++++......%%$$$###.                             ........&.......                   ",
".###$$$%%.++++++++++++.@@@@@@@@@@@@@@@@@@@@.+++++......%%$$$###.                             ......&&&&&......                  ",
".###$$$%%.++++++++++++.@@@@@@@@@@@@@@@@@@@@.++++++......%$$$###.                            .....&&&&&&&&.....                  ",
".###$$$%%.++++++++++++.@@@@@@@@@@@@@@@@@@@@.+++++++.......$$###.                           .....&&&&&&&&&&.....                 ",
".###$$$%%.++++++++++++.@@@@@@@@@@@@@@@@@@@@.++++++++........###.                          .....&&&&&&&&&&&&....                 ",
".###$$$%%.++++++++++++.@@@@@@@@@@@@@@@@@@@@.++++++++++........#.                          ....&&&&&&&&&&&&&.....                ",
".###$$$%%.++++++++++++.@@@@@@@@@@@@@@@@@@@@.++++++++++..........                         ....&&&&&&&....&&&&.....               ",
".###$$$%%.++++++++++++.@@@@@@@@@@@@@@@@@@@@.++++++++++.%%.........                      .....&&&&&&..  ..&&&&.....              ",
".###$$$%%.++++++++++++......................++++++++++.%%$$.............                ....&&&&&&..    ..&&&&.....             ",
".###$$$%%.++++++++++++++++++++++++++++++++++++++++++++.%%$$$##..................       ....&...........  .&&&&&....             ",
".###$$$%%.++++++++++++++++++++++++++++++++++++++++++++.%%$$$###........................................  .&&&&&&....            ",
".###$$$%%.++++++++++++++++++++++++++++++++++++++++++++.%%$$$###.     .................................. ..&&&&&&.....           ",
".###$$$%%.++++++++++++++++++++++++++++++++++++++++++++.%%$$$###.             ..................&&&&..  ..&&&&&&&&.....          ",
".###$$$%%.++++++++++++++++++++++++++++++++++++++++++++.%%$$$###.                    .....&&&&&&&&&&&....&&&&&&&&&&....          ",
".###$$$%%.++++++++++++++++++++++++++++++++++++++++++++.%%$$$###.                   .....&&&&&&&&&&&&&&&&&&&&&&&&&&&....         ",
".###$$$%%.++++++++++++++++++++++++++++++++++++++++++++.%%$$$###.                   ....&&&&&&&&&&&&&&&&&&&&&&&&&&&&.....        ",
".###$$$%%.++++++++++++++++++++++++++++++++++++++++++++.%%$$$###.                  ....&&&&&&&&&&&&&&&&&&&&&&&&&&&&&&.....       ",
".###$$$%%.++++++++++++++++++++++++++++++++++++++++++++.%%$$$###.                 .....&&&&&&&&&&&&&&&&&&&&&&&&&&&&&&&.....      ",
".###$$$%%.++++++++++++++++++++++++++++++++++++++++++++.%%$$$###.                 ....&&&&&&&&&&&&&&&&&&&&&&&&&&&&&&&&&....      ",
".###$$$%%.++++++++++++++++++++++++++++++++++++++++++++.%%$$$###.                ....&&&&&&&&&&&&&&&&&&&&&&&&&&&&&&&&&&&....     ",
".###$$$%%.++++++++++++++++++++++++++++++++++++++++++++.%%$$$###.               .....&&&&&&&&&&&&&&&&&&&&&&&&&&&&&&&&&&&.....    ",
".###$$$%%.++++++++++++++++++++++++++++++++++++++++++++.%%$$$###.              .....&&&&&&&&&&&&&&&&&&&&&&&&&&&&&&&&&&&&&.....   ",
".###$$$%%.++++++++++++++++++++++++++++++++++++++++++++.%%$$$###.              ....&&&&&&&&&&&&&&&&&&&&&&&&&&&&&&&&&&&&&&&....   ",
".###$$$%%.++++++++++++++++++++++++++++++++++++++++++++.%%$$$###.             ....&&&&&&&&&&&&&&&&&&&&&&&&&&&&&&&&&&&&&&&&&....  ",
".###$$$%%.++++++++++++++++++++++++++++++++++++++++++++.%%$$$###.             ....&&&&&&&&&&&&&&&&&&&&&&&&&&&&&&&&&&&&&&&&&..... ",
"..........++++++++++++++++++++######++++++++++++++++++..........            ....&&&&&&&&&&&&&&&&&&&&&&&&&&&&&&&&&&&&&&&&&&&.... ",
"         .+++++++++++++++++############+++++++++++++++.                     ...&&&&&&&&&&&&&&&&&&&&&&&&&&&&&&&&&&&&&&&&&&&&&... ",
"         .++++++++++++++++##############++++++++++++++.                     ...&&&&&&&&&&&&&&&&&&&&&&&&&&&&&&&&&&&&&&&&&&&&&&...",
"         .++++++++++++++##################++++++++++++.                     ...&&&&&&&&&................................&&&&&...",
"         .+++++++++++++####################+++++++++++.                     ...&&&&&&&&&&&&&&&&&&&&&&&&&&&&&&&&&&&&&&&&&&&&&&...",
"         .++++++++++++######################++++++++++.                     ...&&&&&&&&&&&&&&&&&&&&&&&&&&&&&&&&&&&&&&&&&&&&&&...",
"         .++++++++++++######################++++++++++.                     ...&&&&&&&&&&&&&&&&&&&&&&&&&&&&&&&&&&&&&&&&&&&&&&...",
"         .+++++++++++########################+++++++++.                     ...&&&&&&&&&&&&&&&&&&&&&&&&&&&&&&&&&&&&&&&&&&&&&&...",
"         .++++++++++##########################++++++++.                     ...&&&&&&&&&&&&&&&&&&&&&&&&&&&&&&&&&&&&&&&&&&&&&&...",
"         .++++++++++##**********************##++++++++.                     ...&&&&&&&&&&&&&&&&&&&&&&&&&&&&&&&&&&&&&&&&&&&&&&...",
"         .+++++++++###**********************###+++++++.                     ...&&&&&&&&&&&&&&&&&&&&&&&&&&&&&&&&&&&&&&&&&&&&&&...",
"..........+++++++++###**********************###+++++++..........            ...&&&&&&&&&&&&&&&&&&&&&&&&&&&&&&&&&&&&&&&&&&&&&&...",
".###$$$%%.++++++++####**********************####++++++.%%$$$###.            ...&&&&&&&&&&&&&&&&&&&&&&&&&&&&&&&&&&&&&&&&&&&&&&...",
".###$$$%%.++++++++####**********************####++++++.%%$$$###.            ...&&&&&&&&&&&&&&&&&&&&&&&&&&&&&&&&&&&&&&&&&&&&&&...",
".###$$$%%.++++++++####**********************####++++++.%%$$$###.            ...&&&&&&&&...................................&&&...",
".###$$$%%.+++++++#####**********************#####+++++.%%$$$###.            ...&&&&&&&&&&&&&&&&&&&&&&&&&&&&&&&&&&&&&&&&&&&&&&...",
".###$$$%%.+++++++#####**********************#####+++++.%%$$$###.            ...&&&&&&&&&&&&&&&&&&&&&&&&&&&&&&&&&&&&&&&&&&&&&&...",
".###$$$%%.+++++++#####**********************#####+++++.%%$$$###.            ...&&&&&&&&&&&&&&&&&&&&&&&&&&&&&&&&&&&&&&&&&&&&&&...",
".###$$$%%.+++++++#####**********************#####+++++.%%$$$###.            ...&&&&&&&&&&&&&&&&&&&&&&&&&&&&&&&&&&&&&&&&&&&&&&...",
".###$$$%%.++++++######**********************######++++.%%$$$###.            ...&&&&&&&&&&&&&&&&&&&&&&&&&&&&&&&&&&&&&&&&&&&&&&...",
".###$$$%%.++++++######**********************######++++.%%$$$###.            ...&&&&&&&&&&&&&&&&&&&&&&&&&&&&&&&&&&&&&&&&&&&&&&...",
".###$$$%%.++++++######**********************######++++.%%$$$###.            ...&&&&&&&&&&&&&&&&&&&&&&&&&&&&&&&&&&&&&&&&&&&&&&...",
".###$$$%%.++++++######**********************######++++.%%$$$###.            ...&&&&&&&&&&&&&&&&&&&&&&&&&&&&&&&&&&&&&&&&&&&&&&...",
".###$$$%%.++++++######**********************######++++.%%$$$###.            ...&&&&&&&&&&&&&&&&&&&&&&&&&&&&&&&&&&&&&&&&&&&&&&...",
".###$$$%%.++++++######**********************######++++.%%$$$###.            ...&&&&&&&&&&&&&&&&&&&&&&&&&&&&&&&&&&&&&&&&&&&&&&...",
".###$$$%%.++++++######**********************######++++.%%$$$###.            ...&&&&&&..................................&&&&&&...",
".###$$$%%.++++++######**********************######++++.%%$$$###.            ...&&&&&&&&&&&&&&&&&&&&&&&&&&&&&&&&&&&&&&&&&&&&&&...",
".###$$$%%.++++++######**********************######++++.%%$$$###.            ...&&&&&&&&&&&&&&&&&&&&&&&&&&&&&&&&&&&&&&&&&&&&&&...",
".###$$$%%.++++++######**********************######++++.%%$$$###.            ...&&&&&&&&&&&&&&&&&&&&&&&&&&&&&&&&&&&&&&&&&&&&&&...",
".###$$$%%.+++++++#####**********************#####+++++.%%$$$###.            ...&&&&&&&&&&&&&&&&&&&&&&&&&&&&&&&&&&&&&&&&&&&&&&...",
".###$$$%%.+++++++#####**********************#####+++++.%%$$$###.            ...&&&&&&&&&&&&&&&&&&&&&&&&&&&&&&&&&&&&&&&&&&&&&&...",
".###$$$%%.+++++++#####**********************#####+++++.%%$$$###.            ...&&&&&&&&&&&&&&&&&&&&&&&&&&&&&&&&&&&&&&&&&&&&&&...",
".###$$$%%.+++++++#####**********************#####+++++.%%$$$###.            ...&&&&&&&&&&&&&&&&&&&&&&&&&&&&&&&&&&&&&&&&&&&&&&...",
".###$$$%%.++++++++####**********************####++++++.%%$$$###.            ...&&&&&&&&&&&&&&&&&&&&&&&&&&&&&&&&&&&&&&&&&&&&&&...",
".###$$$%%.++++++++####**********************####++++++.%%$$$###.            ...&&&&&&...................................&&&&&...",
".###$$$%%.++++++++####**********************####++++++.%%$$$###.            ...&&&&&&&&&&&&&&&&&&&&&&&&&&&&&&&&&&&&&&&&&&&&&&...",
".###$$$%%.+++++++++###**********************###+++++++.%%$$$###.            ...&&&&&&&&&&&&&&&&&&&&&&&&&&&&&&&&&&&&&&&&&&&&&&...",
"..........+++++++++###**********************###+++++++..........            ...&&&&&&&&&&&&&&&&&&&&&&&&&&&&&&&&&&&&&&&&&&&&&&...",
"         .++++++++++##**********************##++++++++.                     ...&&&&&&&&&&&&&&&&&&&&&&&&&&&&&&&&&&&&&&&&&&&&&&...",
"         .++++++++++##**********************##++++++++.                     ...&&&&&&&&&&&&&&&&&&&&&&&&&&&&&&&&&&&&&&&&&&&&&&...",
"         .+++++++++++#**********************#+++++++++.                     ...&&&&&&&&&&&&&&&&&&&&&&&&&&&&&&&&&&&&&&&&&&&&&&...",
"         .++++++++++++######################++++++++++.                     ...&&&&&&&&&&&&&&&&&&&&&&&&&&&&&&&&&&&&&&&&&&&&&&...",
"         .++++++++++++######################++++++++++.                     ...&&&&&&&&&&&&&&&&&&&&&&&&&&&&&&&&&&&&&&&&&&&&&&...",
"         .+++++++++++++####################+++++++++++.                     ...&&&&&&.....................................&&&...",
"         .++++++++++++++##################++++++++++++.                     ...&&&&&&&&&&&&&&&&&&&&&&&&&&&&&&&&&&&&&&&&&&&&&&...",
"         .++++++++++++++++##############++++++++++++++.                     ...&&&&&&&&&&&&&&&&&&&&&&&&&&&&&&&&&&&&&&&&&&&&&&...",
"..........+++++++++++++++++############+++++++++++++++..........            ...&&&&&&&&&&&&&&&&&&&&&&&&&&&&&&&&&&&&&&&&&&&&&&...",
".###$$$%%.++++++++++++++++++++######++++++++++++++++++.%%$$$###.            ...&&&&&&&&&&&&&&&&&&&&&&&&&&&&&&&&&&&&&&&&&&&&&&...",
".###$$$%%.++++++++++++++++++++++++++++++++++++++++++++.%%$$$###.            ...&&&&&&&&&&&&&&&&&&&&&&&&&&&&&&&&&&&&&&&&&&&&&&...",
".###$$$%%.++++++++++++++++++++++++++++++++++++++++++++.%%$$$###.            ...&&&&&&&&&&&&&&&&&&&&&&&&&&&&&&&&&&&&&&&&&&&&&&...",
".###$$$%%.++++++++++++++++++++++++++++++++++++++++++++.%%$$$###.            ...&&&&&&&&&&&&&&&&&&&&&&&&&&&&&&&&&&&&&&&&&&&&&&...",
".###$$$%%.++++++++++++++++++++++++++++++++++++++++++++.%%$$$###.            ...&&&&&&&&&&&&&&&&&&&&&&&&&&&&&&&&&&&&&&&&&&&&&&...",
".###$$$%%.++++++++++++++++++++++++++++++++++++++++++++.%%$$$###.            ...&&&&&&&...................................&&&&...",
".###$$$%%.++++++++++++++++++++++++++++++++++++++++++++.%%$$$###.            ...&&&&&&&&&&&&&&&&&&&&&&&&&&&&&&&&&&&&&&&&&&&&&&...",
".###$$$%%.++++++++++++++++++++++++++++++++++++++++++++.%%$$$###.            ...&&&&&&&&&&&&&&&&&&&&&&&&&&&&&&&&&&&&&&&&&&&&&&...",
".###$$$%%.++++++++++++++++++++++++++++++++++++++++++++.%%$$$###.            ...&&&&&&&&&&&&&&&&&&&&&&&&&&&&&&&&&&&&&&&&&&&&&&...",
".###$$$%%.++++++++++++++++++++++++++++++++++++++++++++.%%$$$###.            ...&&&&&&&&&&&&&&&&&&&&&&&&&&&&&&&&&&&&&&&&&&&&&&...",
".###$$$%%.++++++++++++++++++++++++++++++++++++++++++++.%%$$$###.            ...&&&&&&&&&&&&&&&&&&&&&&&&&&&&&&&&&&&&&&&&&&&&&&...",
".###$$$%%.++++++++++++++++++++++++++++++++++++++++++++.%%$$$###.            ...&&&&&&&&&&&&&&&&&&&&&&&&&&&&&&&&&&&&&&&&&&&&&&...",
".###$$$%%.++++++++++++++++++++++++++++++++++++++++++++.%%$$$###.            ...&&&&&&&&&&&&&&&&&&&&&&&&&&&&&&&&&&&&&&&&&&&&&&...",
".###$$$%%.++++++++++++++++++++++++++++++++++++++++++++.%%$$$###.            ...&&&&&&&&&&&&&&&&&&&&&&&&&&&&&&&&&&&&&&&&&&&&&&...",
".###$$$%%.++++++++++++++++++++++++++++++++++++++++++++.%%$$$###.            ...&&&&&&....................................&&&&...",
".###$$$%%.++++++++++++++++++++++++++++++++++++++++++++.%%$$$###.            ...&&&&&&&&&&&&&&&&&&&&&&&&&&&&&&&&&&&&&&&&&&&&&&...",
".###$$$%%.++++++++++++++++++++++++++++++++++++++++++++.%%$$$###.            ...&&&&&&&&&&&&&&&&&&&&&&&&&&&&&&&&&&&&&&&&&&&&&&...",
".###$$$%%.++++++++++++++++++++++++++++++++++++++++++++.%%$$$###.            ...&&&&&&&&&&&&&&&&&&&&&&&&&&&&&&&&&&&&&&&&&&&&&&...",
".###$$$%%.++++++++++++++++++++++++++++++++++++++++++++.%%$$$###.            ...&&&&&&&&&&&&&&&&&&&&&&&&&&&&&&&&&&&&&&&&&&&&&&...",
".###$$$%%.++++++++++++++++++++++++++++++++++++++++++++.%%$$$###.            ...&&&&&&&&&&&&&&&&&&&&&&&&&&&&&&&&&&&&&&&&&&&&&&...",
".###$$$%%.++++++++++++++++++++++++++++++++++++++++++++.%%$$$###.            ...&&&&&&&&&&&&&&&&&&&&&&&&&&&&&&&&&&&&&&&&&&&&&&...",
".###$$$%%.++++++++++++++++++++++++++++++++++++++++++++.%%$$$###.            ...&&&&&&&&&&&&&&&&&&&&&&&&&&&&&&&&&&&&&&&&&&&&&&...",
".###$$$%%.++++++++++++++++++++++++++++++++++++++++++++.%%$$$###.            ...&&&&&&&&&&&&&&&&&&&&&&&&&&&&&&&&&&&&&&&&&&&&&&...",
".###$$$%%.++++++++++++++++++++++++++++++++++++++++++++.%%$$$###.            ...&&&&&&&&&&&&&&&&&&&&&&&&&&&&&&&&&&&&&&&&&&&&&&...",
".###$$$%%.++++++++++++++++++++++++++++++++++++++++++++.%%$$$###.            ...&&&&&.....................................&&&&...",
"..........++++++++++++++++++++++++++++++++++++++++++++..........            ...&&&&&&&&&&&&&&&&&&&&&&&&&&&&&&&&&&&&&&&&&&&&&&...",
"         .++++++++++++++++++++++++++++++++++++++++++++.                     ...&&&&&&&&&&&&&&&&&&&&&&&&&&&&&&&&&&&&&&&&&&&&&&...",
"         .++++++++++++++++++++++++++++++++++++++++++++.                     ...&&&&&&&&&&&&&&&&&&&&&&&&&&&&&&&&&&&&&&&&&&&&&&...",
"         .++++++++++++++++++++++++++++++++++++++++++++.                     ...&&&&&&&&&&&&&&&&&&&&&&&&&&&&&&&&&&&&&&&&&&&&&&...",
"         ..............................................                     ...&&&&&&&&&&&&&&&&&&&&&&&&&&&&&&&&&&&&&&&&&&&&&&...",
"                                                                            ...&&&&&&&&&&&&&&&&&&&&&&&&&&&&&&&&&&&&&&&&&&&&&&...",
"                                                                            ...&&&&&&&&&&&&&&&&&&&&&&&&&&&&&&&&&&&&&&&&&&&&&&...",
"                                                                            ...&&&&&&&&&&&&&&&&&&&&&&&&&&&&&&&&&&&&&&&&&&&&&&...",
"                                                                            ....................................................",
"                                                                            ....................................................",
"                                                                            ....................................................",
"                                                                                                                                ",
"                                                                                                                                ",
"                                                                                                                                ",
"                                                                                                                                ",
"                                                                                                                                ",
"                                                                                                                                "};
