/* XPM */
static char * verify_xpm[] = {
"128 128 10 1",
" 	c None",
".	c #000000",
"+	c #D7C60E",
"@	c #FFFFFF",
"#	c #612727",
"$	c #9B2F2F",
"%	c #F3ECEC",
"&	c #C9C3C3",
"*	c #EFE8E8",
"=	c #887373",
"                                                                                                                                ",
"                                                                                                                                ",
"                                                                                                                                ",
"                                                           ..............                                                       ",
"                                                      .................................................                         ",
"                                                  ......++++++++++++++++................................                        ",
"                                                ......++++++++++++++++++++++++++.........................                       ",
"                                              ......+++.........+++++++++++++++++......@@@@@@@@@@@@@......                      ",
"                                            .....++++..............++++++++++++++++.....@@@@@@@@@@@@.......                     ",
"         .......................................+++.....      ........+++++++++++++++.....@@@@@@@@@@........                    ",
"         .############.$$$$$$$$$$$$$$$$$$.....++++...#.          .....+++++++++++++++++....@@@@@@@@@...%.....                   ",
"         .############.$$$$$$$$$$$$$$$$$....++++...###.           ....++++++++++++++++++....@@@@@@@@...%%.....                  ",
"         .############.$$$$$$$$$$$$$$$$...+++++...####.             ...++++++++++++++++++....@@@@@@@...%%%.....                 ",
"..........############.$$$$$$$$$$$$$$$...++++++..#####..........     ...++++++++++++++++++....@@@@@@...%%%%.....                ",
".&&&***@@.############.$$$$$$$$$$$$$$...++++++...#####.@@***&&&.     ....++++++++++++++++++....@@@@@...%%%%%.....               ",
".&&&***@@.############.$$$$$$$$$$$$$$..+++++++..######.@@***&&&.      ...+++++++++++++++++++....@@@@...%%%%%%.....              ",
".&&&***@@.############.$$$$$$$$$$$$$...+++++++...#####.@@***&&&.       ...++++++++++++++++++.....@@@...%%%%%%%.....             ",
".&&&***@@.############.$$$$$$$$$$$$....+++++++...#####.@@***&&&.       ...+++++++++++++++++++....@@@...%%%%%%%%.....            ",
".&&&***@@.############.$$$$$$$$$$$$..+++++++++...#####.@@***&&&.        ...+++++++++++++++++++....@@...%%%%%%%%%.....           ",
".&&&***@@.############.$$$$$$$$$$$...++++++++++...####.@@***&&&.        ...++++++++++++++++++++...@@...%%%%%%%%%%.....          ",
".&&&***@@.############.$$$$$$$$$$$..+++++++++++...####.@@***&&&.         ..+++++++++++++++++++++...@...%%%%%%%%%%%.....         ",
".&&&***@@.############.$$$$$$$$$$...++++++++++++...###.@@***&&&.         ...++++++++++++++++++++...@...%%%%%%%%%%%%.....        ",
".&&&***@@.############..............++++++++++++...###.@@***&&&.         ...+++++++++++++++++++++......%%%%%%%%%%%%%.....       ",
".&&&***@@.#######################..++++++++++++++...##.@@***&&&.         ....+++++++++++++++++++++.....%%%%%%%%%%%%%%.....      ",
".&&&***@@.######################...++++++++++++++...##.@@***&&&.          ...+++++++++++++++++++++.....%%%%%%%%%%%%%%%.....     ",
".&&&***@@.######################...+++++++++++++++...#.@@***&&&.          ...+++++++++++++++++++++.....%%%%%%%%%%%%%%%%.....    ",
".&&&***@@.######################..++++++++++++++++...#.@@***&&&.          ...+++++++++++++++++++++.....%%%%%%%%%%%%%%%%%.....   ",
".&&&***@@.######################..+++++++++++++++++..#.@@***&&&.          ...+++++++++++++++++++++.....%%%%%%%%%%%%%%%%%%.....  ",
".&&&***@@.######################..+++++++++++++++++..#.@@***&&&.          ...+++++++++++++++++++++.....%%%%%%%%%%%%%%%%%%%..... ",
".&&&***@@.######################..+++++++++++++++++....@@***&&&.          ...+++++++++++++++++++++..............................",
".&&&***@@.######################..+++++++++++++++++....@@***&&&.          ...+++++++++++++++++++++..............................",
".&&&***@@.######################..++++++++++++++++++...@@***&&&.          ...+++++++++++++++++++++..............................",
".&&&***@@.######################...+++++++++++++++++...@@***&&&.          ...+++++++++++++++++++++...@@@@@@@@@@@@@@@@@@@@@@@@...",
".&&&***@@.#######################..+++++++++++++++++...@@***&&&.          ...+++++++++++++++++++++...@@@@@@@@@@@@@@@@@@@@@@@@...",
".&&&***@@.#######################..+++++++++++++++.....@@***&&&.          ...+++++++++++++++++++++...@@@@@@@@@@@@@@@@@@@@@@@@...",
".&&&***@@.#######################...++++++++++++++...#.@@***&&&.          ...+++++++++++++++++++++...@@@@@@@@@@@@@@@@@@@@@@@@...",
".&&&***@@.########################...+++++++++++++...#.@@***&&&.          ...+++++++++++++++++++++..@@@@@@@@@@@@@@@@@@@@@@@@@...",
".&&&***@@.#########################...+++++++++++...##.@@***&&&.          ...++++++++++++++++++++...@@@@@@@@@@@@@@@@@@@@@@@@@...",
".&&&***@@.##########################.....++++++....###.@@***&&&.          ...++++++++++++++++++++...@@@@@@@@@@@@@@@@@@@@@@@@@...",
"..........####################&&&&&&#.............####..........          ...++++++++++++++++++++...@@@@@@@@@@@@@@@@@@@@@@@@@...",
"         .#################&&&&&&&&&&&...........#####.                   ...+++++++++++++++++++...@@@@@@@@@@@@@@@@@@@@@@@@@@...",
"         .################&&&&&&&&&&&&&&#.....########.                  ....+++++++++++++++++++...@@@@@@@@@@@@@@@@@@@@@@@@@@...",
"         .##############&&&&&&&&&&&&&&&&&&############.                  ....++++++++++++++++++.........................@@@@@...",
"         .#############&&&&&&&&&&&&&&&&&&&&###########.                  ....+++++++++++++++++....@@@@@@@@@@@@@@@@@@@@@@@@@@@...",
"         .############&&&&&&&&&&&&&&&&&&&&&&##########.                  ...++++++++++++++++++...@@@@@@@@@@@@@@@@@@@@@@@@@@@@...",
"         .############&&&&&&&&&&&&&&&&&&&&&&##########.                  ...++++++++++++++++++...@@@@@@@@@@@@@@@@@@@@@@@@@@@@...",
"         .###########&&&&&&&&&&&&&&&&&&&&&&&&#########.                 ...++++++++++++++++++...@@@@@@@@@@@@@@@@@@@@@@@@@@@@@...",
"         .##########&&&&&&&&&&&&&&&&&&&&&&&&&&########.                 ...+++++++++++++++++...@@@@@@@@@@@@@@@@@@@@@@@@@@@@@@...",
"         .##########&&======================&&########.                ....+++++++++++++++++...@@@@@@@@@@@@@@@@@@@@@@@@@@@@@@...",
"         .#########&&&======================&&&#######.                ...+++++++++++++++++...@@@@@@@@@@@@@@@@@@@@@@@@@@@@@@@...",
"..........#########&&&======================&&&#######..........       ..+++++++++++++++++...@@@@@@@@@@@@@@@@@@@@@@@@@@@@@@@@...",
".&&&***@@.########&&&&======================&&&&######.@@***&&&.      ...++++++++++++++++...@@@@@@@@@@@@@@@@@@@@@@@@@@@@@@@@@...",
".&&&***@@.########&&&&======================&&&&######.@@***&&&.      ...+++++++++++++++...@@@@@@@@@@@@@@@@@@@@@@@@@@@@@@@@@@...",
".&&&***@@.########&&&&======================&&&&######.@@***&&&.     ...+++++++++++++++...................................@@@...",
".&&&***@@.#######&&&&&======================&&&&&#####.@@***&&&.     ...++++++++++++++...@@@@@@@@@@@@@@@@@@@@@@@@@@@@@@@@@@@@...",
".&&&***@@.#######&&&&&======================&&&&&#####.@@***&&&.    ...++++++++++++++...@@@@@@@@@@@@@@@@@@@@@@@@@@@@@@@@@@@@@...",
".&&&***@@.#######&&&&&======================&&&&&#####.@@***&&&.    ...+++++++++++++..@@@@@@@@@@@@@@@@@@@@@@@@@@@@@@@@@@@@@@@...",
".&&&***@@.#######&&&&&======================&&&&&#####.@@***&&&.   ...++++++++++++...@@@@@@@@@@@@@@@@@@@@@@@@@@@@@@@@@@@@@@@@...",
".&&&***@@.######&&&&&&======================&&&&&&####.@@***&&&.   ...+++++++++++...@@@@@@@@@@@@@@@@@@@@@@@@@@@@@@@@@@@@@@@@@...",
".&&&***@@.######&&&&&&======================&&&&&&####.@@***&&&.  ...+++++++++++..@@@@@@@@@@@@@@@@@@@@@@@@@@@@@@@@@@@@@@@@@@@...",
".&&&***@@.######&&&&&&======================&&&&&&####.@@***&&&.  ...+++++++++...@@@@@@@@@@@@@@@@@@@@@@@@@@@@@@@@@@@@@@@@@@@@...",
".&&&***@@.######&&&&&&======================&&&&&&####.@@***&&&. ...+++++++++..@@@@@@@@@@@@@@@@@@@@@@@@@@@@@@@@@@@@@@@@@@@@@@...",
".&&&***@@.######&&&&&&======================&&&&&&####.@@***&&&. ...+++++++....@@@@@@@@@@@@@@@@@@@@@@@@@@@@@@@@@@@@@@@@@@@@@@...",
".&&&***@@.######&&&&&&======================&&&&&&####.@@***&&&....++++++......@@@@@@@@@@@@@@@@@@@@@@@@@@@@@@@@@@@@@@@@@@@@@@...",
".&&&***@@.######&&&&&&======================&&&&&&####.@@***&&&...++++++... ...@@@@@@..................................@@@@@@...",
".&&&***@@.######&&&&&&======================&&&&&&####.@@***&&&...+++++...  ...@@@@@@@@@@@@@@@@@@@@@@@@@@@@@@@@@@@@@@@@@@@@@@...",
".&&&***@@.######&&&&&&======================&&&&&&####.@@***&&&..+++++...   ...@@@@@@@@@@@@@@@@@@@@@@@@@@@@@@@@@@@@@@@@@@@@@@...",
".&&&***@@.######&&&&&&======================&&&&&&####.@@***&&...++++..     ...@@@@@@@@@@@@@@@@@@@@@@@@@@@@@@@@@@@@@@@@@@@@@@...",
".&&&***@@.#######&&&&&======================&&&&&#####.@@***&&..++++..      ...@@@@@@@@@@@@@@@@@@@@@@@@@@@@@@@@@@@@@@@@@@@@@@...",
".&&&***@@.#######&&&&&======================&&&&&#####.@@***&&..+++..       ...@@@@@@@@@@@@@@@@@@@@@@@@@@@@@@@@@@@@@@@@@@@@@@...",
".&&&***@@.#######&&&&&======================&&&&&#####.@@***&..+++..        ...@@@@@@@@@@@@@@@@@@@@@@@@@@@@@@@@@@@@@@@@@@@@@@...",
".&&&***@@.#######&&&&&======================&&&&&#####.@@***&..++...        ...@@@@@@@@@@@@@@@@@@@@@@@@@@@@@@@@@@@@@@@@@@@@@@...",
".&&&***@@.########&&&&======================&&&&######.@@***&..++..         ...@@@@@@@@@@@@@@@@@@@@@@@@@@@@@@@@@@@@@@@@@@@@@@...",
".&&&***@@.########&&&&======================&&&&######.@@***&..+..          ...@@@@@@...................................@@@@@...",
".&&&***@@.########&&&&======================&&&&######.@@***&..+..          ...@@@@@@@@@@@@@@@@@@@@@@@@@@@@@@@@@@@@@@@@@@@@@@...",
".&&&***@@.#########&&&======================&&&#######.@@***..++..          ...@@@@@@@@@@@@@@@@@@@@@@@@@@@@@@@@@@@@@@@@@@@@@@...",
"..........#########&&&======================&&&#######........++.           ...@@@@@@@@@@@@@@@@@@@@@@@@@@@@@@@@@@@@@@@@@@@@@@...",
"         .##########&&======================&&########.     ..+..           ...@@@@@@@@@@@@@@@@@@@@@@@@@@@@@@@@@@@@@@@@@@@@@@...",
"         .##########&&======================&&########.     ..+..           ...@@@@@@@@@@@@@@@@@@@@@@@@@@@@@@@@@@@@@@@@@@@@@@...",
"         .###########&======================&#########.     ..+..           ...@@@@@@@@@@@@@@@@@@@@@@@@@@@@@@@@@@@@@@@@@@@@@@...",
"         .############&&&&&&&&&&&&&&&&&&&&&&##########.     ..+.            ...@@@@@@@@@@@@@@@@@@@@@@@@@@@@@@@@@@@@@@@@@@@@@@...",
"         .############&&&&&&&&&&&&&&&&&&&&&&##########.     ..+.            ...@@@@@@@@@@@@@@@@@@@@@@@@@@@@@@@@@@@@@@@@@@@@@@...",
"         .#############&&&&&&&&&&&&&&&&&&&&###########.     ..+.            ...@@@@@@.....................................@@@...",
"         .##############&&&&&&&&&&&&&&&&&&############.     ..+.            ...@@@@@@@@@@@@@@@@@@@@@@@@@@@@@@@@@@@@@@@@@@@@@@...",
"         .################&&&&&&&&&&&&&&##############.     ....            ...@@@@@@@@@@@@@@@@@@@@@@@@@@@@@@@@@@@@@@@@@@@@@@...",
"..........#################&&&&&&&&&&&&###############..........            ...@@@@@@@@@@@@@@@@@@@@@@@@@@@@@@@@@@@@@@@@@@@@@@...",
".&&&***@@.####################&&&&&&##################.@@***&&&.            ...@@@@@@@@@@@@@@@@@@@@@@@@@@@@@@@@@@@@@@@@@@@@@@...",
".&&&***@@.############################################.@@***&&&.            ...@@@@@@@@@@@@@@@@@@@@@@@@@@@@@@@@@@@@@@@@@@@@@@...",
".&&&***@@.############################################.@@***&&&.            ...@@@@@@@@@@@@@@@@@@@@@@@@@@@@@@@@@@@@@@@@@@@@@@...",
".&&&***@@.############################################.@@***&&&.            ...@@@@@@@@@@@@@@@@@@@@@@@@@@@@@@@@@@@@@@@@@@@@@@...",
".&&&***@@.############################################.@@***&&&.            ...@@@@@@@@@@@@@@@@@@@@@@@@@@@@@@@@@@@@@@@@@@@@@@...",
".&&&***@@.############################################.@@***&&&.            ...@@@@@@@...................................@@@@...",
".&&&***@@.############################################.@@***&&&.            ...@@@@@@@@@@@@@@@@@@@@@@@@@@@@@@@@@@@@@@@@@@@@@@...",
".&&&***@@.############################################.@@***&&&.            ...@@@@@@@@@@@@@@@@@@@@@@@@@@@@@@@@@@@@@@@@@@@@@@...",
".&&&***@@.############################################.@@***&&&.            ...@@@@@@@@@@@@@@@@@@@@@@@@@@@@@@@@@@@@@@@@@@@@@@...",
".&&&***@@.############################################.@@***&&&.            ...@@@@@@@@@@@@@@@@@@@@@@@@@@@@@@@@@@@@@@@@@@@@@@...",
".&&&***@@.############################################.@@***&&&.            ...@@@@@@@@@@@@@@@@@@@@@@@@@@@@@@@@@@@@@@@@@@@@@@...",
".&&&***@@.############################################.@@***&&&.            ...@@@@@@@@@@@@@@@@@@@@@@@@@@@@@@@@@@@@@@@@@@@@@@...",
".&&&***@@.############################################.@@***&&&.            ...@@@@@@@@@@@@@@@@@@@@@@@@@@@@@@@@@@@@@@@@@@@@@@...",
".&&&***@@.############################################.@@**........         ...@@@@@@@@@@@@@@@@@@@@@@@@@@@@@@@@@@@@@@@@@@@@@@...",
".&&&***@@.############################################.@.............       ...@@@@@@....................................@@@@...",
".&&&***@@.############################################.......++++......     ...@@@@@@@@@@@@@@@@@@@@@@@@@@@@@@@@@@@@@@@@@@@@@@...",
".&&&***@@.###########################################....+++++++++++....    ...@@@@@@@@@@@@@@@@@@@@@@@@@@@@@@@@@@@@@@@@@@@@@@...",
".&&&***@@.##########################################....++++++++++++++...   ...@@@@@@@@@@@@@@@@@@@@@@@@@@@@@@@@@@@@@@@@@@@@@@...",
".&&&***@@.#########################################...+++++++++++++++++...  ...@@@@@@@@@@@@@@@@@@@@@@@@@@@@@@@@@@@@@@@@@@@@@@...",
".&&&***@@.#########################################..+++++++++++++++++++... ...@@@@@@@@@@@@@@@@@@@@@@@@@@@@@@@@@@@@@@@@@@@@@@...",
".&&&***@@.########################################...+++++++++++++++++++... ...@@@@@@@@@@@@@@@@@@@@@@@@@@@@@@@@@@@@@@@@@@@@@@...",
".&&&***@@.########################################..+++++++++++++++++++++......@@@@@@@@@@@@@@@@@@@@@@@@@@@@@@@@@@@@@@@@@@@@@@...",
".&&&***@@.#######################################...++++++++++++++++++++++.....@@@@@@@@@@@@@@@@@@@@@@@@@@@@@@@@@@@@@@@@@@@@@@...",
".&&&***@@.#######################################...++++++++++++++++++++++.....@@@@@@@@@@@@@@@@@@@@@@@@@@@@@@@@@@@@@@@@@@@@@@...",
".&&&***@@.#######################################..++++++++++++++++++++++++....@@@@@.....................................@@@@...",
"..........#######################################..++++++++++++++++++++++++....@@@@@@@@@@@@@@@@@@@@@@@@@@@@@@@@@@@@@@@@@@@@@@...",
"         .#######################################..++++++++++++++++++++++++....@@@@@@@@@@@@@@@@@@@@@@@@@@@@@@@@@@@@@@@@@@@@@@...",
"         .#######################################..++++++++++++++++++++++++....@@@@@@@@@@@@@@@@@@@@@@@@@@@@@@@@@@@@@@@@@@@@@@...",
"         .#######################################..++++++++++++++++++++++++....@@@@@@@@@@@@@@@@@@@@@@@@@@@@@@@@@@@@@@@@@@@@@@...",
"         ..........................................++++++++++++++++++++++++....@@@@@@@@@@@@@@@@@@@@@@@@@@@@@@@@@@@@@@@@@@@@@@...",
"                                                 ...+++++++++++++++++++++++....@@@@@@@@@@@@@@@@@@@@@@@@@@@@@@@@@@@@@@@@@@@@@@...",
"                                                 ...+++++++++++++++++++++++....@@@@@@@@@@@@@@@@@@@@@@@@@@@@@@@@@@@@@@@@@@@@@@...",
"                                                  ...+++++++++++++++++++++.....@@@@@@@@@@@@@@@@@@@@@@@@@@@@@@@@@@@@@@@@@@@@@@...",
"                                                  ...++++++++++++++++++++.. ....................................................",
"                                                   ...++++++++++++++++++... ....................................................",
"                                                   ....++++++++++++++++...  ....................................................",
"                                                    ....+++++++++++++....                                                       ",
"                                                     ....+++++++++++....                                                        ",
"                                                      .....++++++++....                                                         ",
"                                                        ..............                                                          ",
"                                                          ..........                                                            ",
"                                                                                                                                "};
