/* XPM */
static char * verify_eeprom_xpm[] = {
"128 128 11 1",
" 	c None",
".	c #000000",
"+	c #B3B9F8",
"@	c #FFEB0E",
"#	c #612727",
"$	c #9B2F2F",
"%	c #D0C013",
"&	c #C9C3C3",
"*	c #EFE8E8",
"=	c #FFFFFF",
"-	c #887373",
"                                                                                                                                ",
"                                                                                                                                ",
"                                                                                                                                ",
"                                                           ..............                                                       ",
"                                                      .................................................                         ",
"                                                  ......++++++++++++++++................................                        ",
"                                                ......++++++++++++++++++++++++++.........................                       ",
"                                              ......+++.........+++++++++++++++++......@@@@@@@@@@@@@......                      ",
"                                            .....++++..............++++++++++++++++.....@@@@@@@@@@@@.......                     ",
"         .......................................+++.....      ........+++++++++++++++.....@@@@@@@@@@........                    ",
"         .############.$$$$$$$$$$$$$$$$$$.....++++...#.          .....+++++++++++++++++....@@@@@@@@@...%.....                   ",
"         .############.$$$$$$$$$$$$$$$$$....++++...###.           ....++++++++++++++++++....@@@@@@@@...%%.....                  ",
"         .############.$$$$$$$$$$$$$$$$...+++++...####.             ...++++++++++++++++++....@@@@@@@...%%%.....                 ",
"..........############.$$$$$$$$$$$$$$$...++++++..#####..........     ...++++++++++++++++++....@@@@@@...%%%%.....                ",
".&&&***==.############.$$$$$$$$$$$$$$...++++++...#####.==***&&&.     ....++++++++++++++++++....@@@@@...%%%%%.....               ",
".&&&***==.############.$$$$$$$$$$$$$$..+++++++..######.==***&&&.      ...+++++++++++++++++++....@@@@...%%%%%%.....              ",
".&&&***==.############.$$$$$$$$$$$$$...+++++++...#####.==***&&&.       ...++++++++++++++++++.....@@@...%%%%%%%.....             ",
".&&&***==.############.$$$$$$$$$$$$....+++++++...#####.==***&&&.       ...+++++++++++++++++++....@@@...%%%%%%%%.....            ",
".&&&***==.############.$$$$$$$$$$$$..+++++++++...#####.==***&&&.        ...+++++++++++++++++++....@@...%%%%%%%%%.....           ",
".&&&***==.############.$$$$$$$$$$$...++++++++++...####.==***&&&.        ...++++++++++++++++++++...@@...%%%%%%%%%%.....          ",
".&&&***==.############.$$$$$$$$$$$..+++++++++++...####.==***&&&.         ..+++++++++++++++++++++...@...%%%%%%%%%%%.....         ",
".&&&***==.############.$$$$$$$$$$...++++++++++++...###.==***&&&.         ...++++++++++++++++++++...@...%%%%%%%%%%%%.....        ",
".&&&***==.############..............++++++++++++...###.==***&&&.         ...+++++++++++++++++++++......%%%%%%%%%%%%%.....       ",
".&&&***==.#######################..++++++++++++++...##.==***&&&.         ....+++++++++++++++++++++.....%%%%%%%%%%%%%%.....      ",
".&&&***==.######################...++++++++++++++...##.==***&&&.          ...+++++++++++++++++++++.....%%%%%%%%%%%%%%%.....     ",
".&&&***==.######################...+++++++++++++++...#.==***&&&.          ...+++++++++++++++++++++.....%%%%%%%%%%%%%%%%.....    ",
".&&&***==.######################..++++++++++++++++...#.==***&&&.          ...+++++++++++++++++++++.....%%%%%%%%%%%%%%%%%.....   ",
".&&&***==.######################..+++++++++++++++++..#.==***&&&.          ...+++++++++++++++++++++.....%%%%%%%%%%%%%%%%%%.....  ",
".&&&***==.######################..+++++++++++++++++..#.==***&&&.          ...+++++++++++++++++++++.....%%%%%%%%%%%%%%%%%%%..... ",
".&&&***==.######################..+++++++++++++++++....==***&&&.          ...+++++++++++++++++++++..............................",
".&&&***==.######################..+++++++++++++++++....==***&&&.          ...+++++++++++++++++++++..............................",
".&&&***==.######################..++++++++++++++++++...==***&&&.          ...+++++++++++++++++++++..............................",
".&&&***==.######################...+++++++++++++++++...==***&&&.          ...+++++++++++++++++++++...@@@@@@@@@@@@@@@@@@@@@@@@...",
".&&&***==.#######################..+++++++++++++++++...==***&&&.          ...+++++++++++++++++++++...@@@@@@@@@@@@@@@@@@@@@@@@...",
".&&&***==.#######################..+++++++++++++++.....==***&&&.          ...+++++++++++++++++++++...@@@@@@@@@@@@@@@@@@@@@@@@...",
".&&&***==.#######################...++++++++++++++...#.==***&&&.          ...+++++++++++++++++++++...@@@@@@@@@@@@@@@@@@@@@@@@...",
".&&&***==.########################...+++++++++++++...#.==***&&&.          ...+++++++++++++++++++++..@@@@@@@@@@@@@@@@@@@@@@@@@...",
".&&&***==.#########################...+++++++++++...##.==***&&&.          ...++++++++++++++++++++...@@@@@@@@@@@@@@@@@@@@@@@@@...",
".&&&***==.##########################.....++++++....###.==***&&&.          ...++++++++++++++++++++...@@@@@@@@@@@@@@@@@@@@@@@@@...",
"..........####################&&&&&&#.............####..........          ...++++++++++++++++++++...@@@@@@@@@@@@@@@@@@@@@@@@@...",
"         .#################&&&&&&&&&&&...........#####.                   ...+++++++++++++++++++...@@@@@@@@@@@@@@@@@@@@@@@@@@...",
"         .################&&&&&&&&&&&&&&#.....########.                  ....+++++++++++++++++++...@@@@@@@@@@@@@@@@@@@@@@@@@@...",
"         .##############&&&&&&&&&&&&&&&&&&############.                  ....++++++++++++++++++.........................@@@@@...",
"         .#############&&&&&&&&&&&&&&&&&&&&###########.                  ....+++++++++++++++++....@@@@@@@@@@@@@@@@@@@@@@@@@@@...",
"         .############&&&&&&&&&&&&&&&&&&&&&&##########.                  ...++++++++++++++++++...@@@@@@@@@@@@@@@@@@@@@@@@@@@@...",
"         .############&&&&&&&&&&&&&&&&&&&&&&##########.                  ...++++++++++++++++++...@@@@@@@@@@@@@@@@@@@@@@@@@@@@...",
"         .###########&&&&&&&&&&&&&&&&&&&&&&&&#########.                 ...++++++++++++++++++...@@@@@@@@@@@@@@@@@@@@@@@@@@@@@...",
"         .##########&&&&&&&&&&&&&&&&&&&&&&&&&&########.                 ...+++++++++++++++++...@@@@@@@@@@@@@@@@@@@@@@@@@@@@@@...",
"         .##########&&----------------------&&########.                ....+++++++++++++++++...@@@@@@@@@@@@@@@@@@@@@@@@@@@@@@...",
"         .#########&&&----------------------&&&#######.                ...+++++++++++++++++...@@@@@@@@@@@@@@@@@@@@@@@@@@@@@@@...",
"..........#########&&&----------------------&&&#######..........       ..+++++++++++++++++...@@@@@@@@@@@@@@@@@@@@@@@@@@@@@@@@...",
".&&&***==.########&&&&----------------------&&&&######.==***&&&.      ...++++++++++++++++...@@@@@@@@@@@@@@@@@@@@@@@@@@@@@@@@@...",
".&&&***==.########&&&&----------------------&&&&######.==***&&&.      ...+++++++++++++++...@@@@@@@@@@@@@@@@@@@@@@@@@@@@@@@@@@...",
".&&&***==.########&&&&----------------------&&&&######.==***&&&.     ...+++++++++++++++...................................@@@...",
".&&&***==.#######&&&&&----------------------&&&&&#####.==***&&&.     ...++++++++++++++...@@@@@@@@@@@@@@@@@@@@@@@@@@@@@@@@@@@@...",
".&&&***==.#######&&&&&----------------------&&&&&#####.==***&&&.    ...++++++++++++++...@@@@@@@@@@@@@@@@@@@@@@@@@@@@@@@@@@@@@...",
".&&&***==.#######&&&&&----------------------&&&&&#####.==***&&&.    ...+++++++++++++..@@@@@@@@@@@@@@@@@@@@@@@@@@@@@@@@@@@@@@@...",
".&&&***==.#######&&&&&----------------------&&&&&#####.==***&&&.   ...++++++++++++...@@@@@@@@@@@@@@@@@@@@@@@@@@@@@@@@@@@@@@@@...",
".&&&***==.######&&&&&&----------------------&&&&&&####.==***&&&.   ...+++++++++++...@@@@@@@@@@@@@@@@@@@@@@@@@@@@@@@@@@@@@@@@@...",
".&&&***==.######&&&&&&----------------------&&&&&&####.==***&&&.  ...+++++++++++..@@@@@@@@@@@@@@@@@@@@@@@@@@@@@@@@@@@@@@@@@@@...",
".&&&***==.######&&&&&&----------------------&&&&&&####.==***&&&.  ...+++++++++...@@@@@@@@@@@@@@@@@@@@@@@@@@@@@@@@@@@@@@@@@@@@...",
".&&&***==.######&&&&&&----------------------&&&&&&####.==***&&&. ...+++++++++..@@@@@@@@@@@@@@@@@@@@@@@@@@@@@@@@@@@@@@@@@@@@@@...",
".&&&***==.######&&&&&&----------------------&&&&&&####.==***&&&. ...+++++++....@@@@@@@@@@@@@@@@@@@@@@@@@@@@@@@@@@@@@@@@@@@@@@...",
".&&&***==.######&&&&&&----------------------&&&&&&####.==***&&&....++++++......@@@@@@@@@@@@@@@@@@@@@@@@@@@@@@@@@@@@@@@@@@@@@@...",
".&&&***==.######&&&&&&----------------------&&&&&&####.==***&&&...++++++... ...@@@@@@..................................@@@@@@...",
".&&&***==.######&&&&&&----------------------&&&&&&####.==***&&&...+++++...  ...@@@@@@@@@@@@@@@@@@@@@@@@@@@@@@@@@@@@@@@@@@@@@@...",
".&&&***==.######&&&&&&----------------------&&&&&&####.==***&&&..+++++...   ...@@@@@@@@@@@@@@@@@@@@@@@@@@@@@@@@@@@@@@@@@@@@@@...",
".&&&***==.######&&&&&&----------------------&&&&&&####.==***&&...++++..     ...@@@@@@@@@@@@@@@@@@@@@@@@@@@@@@@@@@@@@@@@@@@@@@...",
".&&&***==.#######&&&&&----------------------&&&&&#####.==***&&..++++..      ...@@@@@@@@@@@@@@@@@@@@@@@@@@@@@@@@@@@@@@@@@@@@@@...",
".&&&***==.#######&&&&&----------------------&&&&&#####.==***&&..+++..       ...@@@@@@@@@@@@@@@@@@@@@@@@@@@@@@@@@@@@@@@@@@@@@@...",
".&&&***==.#######&&&&&----------------------&&&&&#####.==***&..+++..        ...@@@@@@@@@@@@@@@@@@@@@@@@@@@@@@@@@@@@@@@@@@@@@@...",
".&&&***==.#######&&&&&----------------------&&&&&#####.==***&..++...        ...@@@@@@@@@@@@@@@@@@@@@@@@@@@@@@@@@@@@@@@@@@@@@@...",
".&&&***==.########&&&&----------------------&&&&######.==***&..++..         ...@@@@@@@@@@@@@@@@@@@@@@@@@@@@@@@@@@@@@@@@@@@@@@...",
".&&&***==.########&&&&----------------------&&&&######.==***&..+..          ...@@@@@@...................................@@@@@...",
".&&&***==.########&&&&----------------------&&&&######.==***&..+..          ...@@@@@@@@@@@@@@@@@@@@@@@@@@@@@@@@@@@@@@@@@@@@@@...",
".&&&***==.#########&&&----------------------&&&#######.==***..++..          ...@@@@@@@@@@@@@@@@@@@@@@@@@@@@@@@@@@@@@@@@@@@@@@...",
"..........#########&&&----------------------&&&#######........++.           ...@@@@@@@@@@@@@@@@@@@@@@@@@@@@@@@@@@@@@@@@@@@@@@...",
"         .##########&&----------------------&&########.     ..+..           ...@@@@@@@@@@@@@@@@@@@@@@@@@@@@@@@@@@@@@@@@@@@@@@...",
"         .##########&&----------------------&&########.     ..+..           ...@@@@@@@@@@@@@@@@@@@@@@@@@@@@@@@@@@@@@@@@@@@@@@...",
"         .###########&----------------------&#########.     ..+..           ...@@@@@@@@@@@@@@@@@@@@@@@@@@@@@@@@@@@@@@@@@@@@@@...",
"         .############&&&&&&&&&&&&&&&&&&&&&&##########.     ..+.            ...@@@@@@@@@@@@@@@@@@@@@@@@@@@@@@@@@@@@@@@@@@@@@@...",
"         .############&&&&&&&&&&&&&&&&&&&&&&##########.     ..+.            ...@@@@@@@@@@@@@@@@@@@@@@@@@@@@@@@@@@@@@@@@@@@@@@...",
"         .#############&&&&&&&&&&&&&&&&&&&&###########.     ..+.            ...@@@@@@.....................................@@@...",
"         .##############&&&&&&&&&&&&&&&&&&############.     ..+.            ...@@@@@@@@@@@@@@@@@@@@@@@@@@@@@@@@@@@@@@@@@@@@@@...",
"         .################&&&&&&&&&&&&&&##############.     ....            ...@@@@@@@@@@@@@@@@@@@@@@@@@@@@@@@@@@@@@@@@@@@@@@...",
"..........#################&&&&&&&&&&&&###############..........            ...@@@@@@@@@@@@@@@@@@@@@@@@@@@@@@@@@@@@@@@@@@@@@@...",
".&&&***==.####################&&&&&&##################.==***&&&.            ...@@@@@@@@@@@@@@@@@@@@@@@@@@@@@@@@@@@@@@@@@@@@@@...",
".&&&***==.############################################.==***&&&.            ...@@@@@@@@@@@@@@@@@@@@@@@@@@@@@@@@@@@@@@@@@@@@@@...",
".&&&***==.############################################.==***&&&.            ...@@@@@@@@@@@@@@@@@@@@@@@@@@@@@@@@@@@@@@@@@@@@@@...",
".&&&***==.############################################.==***&&&.            ...@@@@@@@@@@@@@@@@@@@@@@@@@@@@@@@@@@@@@@@@@@@@@@...",
".&&&***==.############################################.==***&&&.            ...@@@@@@@@@@@@@@@@@@@@@@@@@@@@@@@@@@@@@@@@@@@@@@...",
".&&&***==.############################################.==***&&&.            ...@@@@@@@...................................@@@@...",
".&&&***==.############################################.==***&&&.            ...@@@@@@@@@@@@@@@@@@@@@@@@@@@@@@@@@@@@@@@@@@@@@@...",
".&&&***==.############################################.==***&&&.            ...@@@@@@@@@@@@@@@@@@@@@@@@@@@@@@@@@@@@@@@@@@@@@@...",
".&&&***==.############################################.==***&&&.            ...@@@@@@@@@@@@@@@@@@@@@@@@@@@@@@@@@@@@@@@@@@@@@@...",
".&&&***==.############################################.==***&&&.            ...@@@@@@@@@@@@@@@@@@@@@@@@@@@@@@@@@@@@@@@@@@@@@@...",
".&&&***==.############################################.==***&&&.            ...@@@@@@@@@@@@@@@@@@@@@@@@@@@@@@@@@@@@@@@@@@@@@@...",
".&&&***==.############################################.==***&&&.            ...@@@@@@@@@@@@@@@@@@@@@@@@@@@@@@@@@@@@@@@@@@@@@@...",
".&&&***==.############################################.==***&&&.            ...@@@@@@@@@@@@@@@@@@@@@@@@@@@@@@@@@@@@@@@@@@@@@@...",
".&&&***==.############################################.==**........         ...@@@@@@@@@@@@@@@@@@@@@@@@@@@@@@@@@@@@@@@@@@@@@@...",
".&&&***==.############################################.=.............       ...@@@@@@....................................@@@@...",
".&&&***==.############################################.......++++......     ...@@@@@@@@@@@@@@@@@@@@@@@@@@@@@@@@@@@@@@@@@@@@@@...",
".&&&***==.###########################################....+++++++++++....    ...@@@@@@@@@@@@@@@@@@@@@@@@@@@@@@@@@@@@@@@@@@@@@@...",
".&&&***==.##########################################....++++++++++++++...   ...@@@@@@@@@@@@@@@@@@@@@@@@@@@@@@@@@@@@@@@@@@@@@@...",
".&&&***==.#########################################...+++++++++++++++++...  ...@@@@@@@@@@@@@@@@@@@@@@@@@@@@@@@@@@@@@@@@@@@@@@...",
".&&&***==.#########################################..+++++++++++++++++++... ...@@@@@@@@@@@@@@@@@@@@@@@@@@@@@@@@@@@@@@@@@@@@@@...",
".&&&***==.########################################...+++++++++++++++++++... ...@@@@@@@@@@@@@@@@@@@@@@@@@@@@@@@@@@@@@@@@@@@@@@...",
".&&&***==.########################################..+++++++++++++++++++++......@@@@@@@@@@@@@@@@@@@@@@@@@@@@@@@@@@@@@@@@@@@@@@...",
".&&&***==.#######################################...++++++++++++++++++++++.....@@@@@@@@@@@@@@@@@@@@@@@@@@@@@@@@@@@@@@@@@@@@@@...",
".&&&***==.#######################################...++++++++++++++++++++++.....@@@@@@@@@@@@@@@@@@@@@@@@@@@@@@@@@@@@@@@@@@@@@@...",
".&&&***==.#######################################..++++++++++++++++++++++++....@@@@@.....................................@@@@...",
"..........#######################################..++++++++++++++++++++++++....@@@@@@@@@@@@@@@@@@@@@@@@@@@@@@@@@@@@@@@@@@@@@@...",
"         .#######################################..++++++++++++++++++++++++....@@@@@@@@@@@@@@@@@@@@@@@@@@@@@@@@@@@@@@@@@@@@@@...",
"         .#######################################..++++++++++++++++++++++++....@@@@@@@@@@@@@@@@@@@@@@@@@@@@@@@@@@@@@@@@@@@@@@...",
"         .#######################################..++++++++++++++++++++++++....@@@@@@@@@@@@@@@@@@@@@@@@@@@@@@@@@@@@@@@@@@@@@@...",
"         ..........................................++++++++++++++++++++++++....@@@@@@@@@@@@@@@@@@@@@@@@@@@@@@@@@@@@@@@@@@@@@@...",
"                                                 ...+++++++++++++++++++++++....@@@@@@@@@@@@@@@@@@@@@@@@@@@@@@@@@@@@@@@@@@@@@@...",
"                                                 ...+++++++++++++++++++++++....@@@@@@@@@@@@@@@@@@@@@@@@@@@@@@@@@@@@@@@@@@@@@@...",
"                                                  ...+++++++++++++++++++++.....@@@@@@@@@@@@@@@@@@@@@@@@@@@@@@@@@@@@@@@@@@@@@@...",
"                                                  ...++++++++++++++++++++.. ....................................................",
"                                                   ...++++++++++++++++++... ....................................................",
"                                                   ....++++++++++++++++...  ....................................................",
"                                                    ....+++++++++++++....                                                       ",
"                                                     ....+++++++++++....                                                        ",
"                                                      .....++++++++....                                                         ",
"                                                        ..............                                                          ",
"                                                          ..........                                                            ",
"                                                                                                                                "};
