/* XPM */
static char * write_xpm[] = {
"128 128 11 1",
" 	c None",
".	c #000000",
"+	c #FFFFFF",
"@	c #612727",
"#	c #9B2F2F",
"$	c #F3ECEC",
"%	c #191917",
"&	c #C9C3C3",
"*	c #EFE8E8",
"=	c #F80505",
"-	c #887373",
"                                                                                                                                ",
"                                                                                                                                ",
"                                                                                                                                ",
"                                                                                                                                ",
"                                                                            ...........................                         ",
"                                                                            ............................                        ",
"                                                                            .............................                       ",
"                                                                            ...+++++++++++++++++++++......                      ",
"                                                                            ...+++++++++++++++++++++.......                     ",
"         ..............................................                     ...+++++++++++++++++++++........                    ",
"         .@@@@@@@@@@@@.####################.@@@@@@@@@@.                     ...+++++++++++++++++++++...$.....                   ",
"         .@@@@@@@@@@@@.####################.@@@@@@@@@@.                     ...+++++++++++++++++++++...$$.....                  ",
"         .@@@@@@@@@@@@.####################.@@@@@@@@@@.                     ...+++++++++++++++++++++...$$$.....                 ",
"..........@@@@@@@@@@@@.####################.@@@@@@@@@@.......%%%            ...+++++++++++++++++++++...$$$$.....                ",
".&&&***++.@@@@@@@@@@@@.####################.@@@@@@@@@@.++***%%%%            ...+++++++++++++++++++++...$$$$$.....               ",
".&&&***++.@@@@@@@@@@@@.####################.@@@@@@@@@@.++**%%%%%            ...+++++++++++++++++++++...$$$$$$.....              ",
".&&&***++.@@@@@@@@@@@@.####################.@@@@@@@@@@.++**%%%%%            ...+++++++++++++++++++++...$$$$$$$.....             ",
".&&&***++.@@@@@@@@@@@@.####################.@@@@@@@@@@.++*%%%%%%            ...+++++++++++++++++++++...$$$$$$$$.....            ",
".&&&***++.@@@@@@@@@@@@.####################.@@@@@@@@@@.++%%%%%%%            ...+++++++++++++++++++++...$$$$$$$$$.....           ",
".&&&***++.@@@@@@@@@@@@.####################.@@@@@@@@@@.+%%%%%%%%            ...+++++++++++++++++++++...$$$$$$$$$$.....          ",
".&&&***++.@@@@@@@@@@@@.####################.@@@@@@@@@@.%%%%%=%%%            ...+++++++++++++++++++++...$$$$$$$$$$$.....         ",
".&&&***++.@@@@@@@@@@@@.####################.@@@@@@@@@@.%%%%==%%%            ...+++++++++++++++++++++...$$$$$$$$$$$$.....        ",
".&&&***++.@@@@@@@@@@@@......................@@@@@@@@@@%%%%===%%%            ...+++++++++++++++++++++...$$$$$$$$$$$$$.....       ",
".&&&***++.@@@@@@@@@@@@@@@@@@@@@@@@@@@@@@@@@@@@@@@@@@@%%%%%===%%%            ...+++++++++++++++++++++...$$$$$$$$$$$$$$.....      ",
".&&&***++.@@@@@@@@@@@@@@@@@@@@@@@@@@@@@@@@@@@@@@@@@@%%%%%====%%%            ...+++++++++++++++++++++...$$$$$$$$$$$$$$$.....     ",
".&&&***++.@@@@@@@@@@@@@@@@@@@@@@@@@@@@@@@@@@@@@@@@@%%%%%=====%%%            ...+++++++++++++++++++++...$$$$$$$$$$$$$$$$.....    ",
".&&&***++.@@@@@@@@@@@@@@@@@@@@@@@@@@@@@@@@@@@@@@@@%%%%%======%%%            ...+++++++++++++++++++++...$$$$$$$$$$$$$$$$$.....   ",
".&&&***++.@@@@@@@@@@@@@@@@@@@@@@@@@@@@@@@@@@@@@@@@%%%%=======%%%            ...+++++++++++++++++++++...$$$$$$$$$$$$$$$$$$.....  ",
".&&&***++.@@@@@@@@@@@@@@@@@@@@@@@@@@@@@@@@@@@@@@@%%%%========%%%            ...+++++++++++++++++++++...$$$$$$$$$$$$$$$$$$$..... ",
".&&&***++.@@@@@@@@@@@@@@@@@@@@@@@@@@@@@@@@@@@@@@%%%%%========%%%            ...+++++++++++++++++++++............................",
".&&&***++.@@@@@@@@@@@@@@@@@@@@@@@@@@@@@@@@@@@@@%%%%%=========%%%            ...+++++++++++++++++++++............................",
".&&&***++.@@@@@@@@@@@@@@@@@@@@@@@@@@@@@@@@@@@@%%%%%==========%%%            ...+++++++++++++++++++++............................",
".&&&***++.@@@@@@@@@@@@@@@@@@@@@@@@@@@@@@@@@@@@%%%%===========%%%            ...++++++++++++++++++++++++++++++++++++++++++++++...",
".&&&***++.@@@@@@@@@@@@@@@@@@@@@@@@@@@@@@@@@@@%%%%============%%%            ...++++++++++++++++++++++++++++++++++++++++++++++...",
".&&&***++.@@@@@@@@@@@@@@@@@@@@@@@@@@@@@@@@@@%%%%%============%%%            ...++++++++++++++++++++++++++++++++++++++++++++++...",
".&&&***++.@@@@@@@@@@@@@@@@@@@@@@@@@@@@@@@@@%%%%%=============%%%            ...++++++++++++++++++++++++++++++++++++++++++++++...",
".&&&***++.@@@@@@@@@@@@@@@@@@@@@@@@@@@@@@@@%%%%%==============%%%%%%%%%%%%%%%%%%%%%%%%%%%%%%%%%%%+++++++++++++++++++++++++++++...",
".&&&***++.@@@@@@@@@@@@@@@@@@@@@@@@@@@@@@@@%%%%===============%%%%%%%%%%%%%%%%%%%%%%%%%%%%%%%%%%%+++++++++++++++++++++++++++++...",
".&&&***++.@@@@@@@@@@@@@@@@@@@@@@@@@@@@@@@%%%%================%%%%%%%%%%%%%%%%%%%%%%%%%%%%%%%%%%%+++++++++++++++++++++++++++++...",
"..........@@@@@@@@@@@@@@@@@@@@&&&&&&@@@@%%%%%================================================%%%+++++++++++++++++++++++++++++...",
"         .@@@@@@@@@@@@@@@@@&&&&&&&&&&&&%%%%%=================================================%%%+++++++++++++++++++++++++++++...",
"         .@@@@@@@@@@@@@@@@&&&&&&&&&&&&%%%%%==================================================%%%+++++++++++++++++++++++++++++...",
"         .@@@@@@@@@@@@@@&&&&&&&&&&&&&%%%%%===================================================%%%........................+++++...",
"         .@@@@@@@@@@@@@&&&&&&&&&&&&&&%%%%====================================================%%%+++++++++++++++++++++++++++++...",
"         .@@@@@@@@@@@@&&&&&&&&&&&&&&%%%%=====================================================%%%+++++++++++++++++++++++++++++...",
"         .@@@@@@@@@@@@&&&&&&&&&&&&&%%%%%=====================================================%%%+++++++++++++++++++++++++++++...",
"         .@@@@@@@@@@@&&&&&&&&&&&&&%%%%%======================================================%%%+++++++++++++++++++++++++++++...",
"         .@@@@@@@@@@&&&&&&&&&&&&&%%%%%=======================================================%%%+++++++++++++++++++++++++++++...",
"         .@@@@@@@@@@&&-----------%%%%========================================================%%%+++++++++++++++++++++++++++++...",
"         .@@@@@@@@@&&&----------%%%%=========================================================%%%+++++++++++++++++++++++++++++...",
"..........@@@@@@@@@&&&---------%%%%%=========================================================%%%+++++++++++++++++++++++++++++...",
".&&&***++.@@@@@@@@&&&&--------%%%%%==========================================================%%%+++++++++++++++++++++++++++++...",
".&&&***++.@@@@@@@@&&&&-------%%%%%===========================================================%%%+++++++++++++++++++++++++++++...",
".&&&***++.@@@@@@@@&&&&-------%%%%============================================================%%%..........................+++...",
".&&&***++.@@@@@@@&&&&&------%%%%=============================================================%%%+++++++++++++++++++++++++++++...",
".&&&***++.@@@@@@@&&&&&-----%%%%%=============================================================%%%+++++++++++++++++++++++++++++...",
".&&&***++.@@@@@@@&&&&&----%%%%%==============================================================%%%+++++++++++++++++++++++++++++...",
".&&&***++.@@@@@@@&&&&&---%%%%%===============================================================%%%+++++++++++++++++++++++++++++...",
".&&&***++.@@@@@@&&&&&&--%%%%%================================================================%%%+++++++++++++++++++++++++++++...",
".&&&***++.@@@@@@&&&&&&--%%%%=================================================================%%%+++++++++++++++++++++++++++++...",
".&&&***++.@@@@@@&&&&&&-%%%%==================================================================%%%+++++++++++++++++++++++++++++...",
".&&&***++.@@@@@@&&&&&&%%%%%==================================================================%%%+++++++++++++++++++++++++++++...",
".&&&***++.@@@@@@&&&&&&%%%%===================================================================%%%+++++++++++++++++++++++++++++...",
".&&&***++.@@@@@@&&&&&&%%%%%==================================================================%%%+++++++++++++++++++++++++++++...",
".&&&***++.@@@@@@&&&&&&-%%%%==================================================================%%%.......................++++++...",
".&&&***++.@@@@@@&&&&&&--%%%%=================================================================%%%+++++++++++++++++++++++++++++...",
".&&&***++.@@@@@@&&&&&&--%%%%%================================================================%%%+++++++++++++++++++++++++++++...",
".&&&***++.@@@@@@&&&&&&---%%%%%===============================================================%%%+++++++++++++++++++++++++++++...",
".&&&***++.@@@@@@@&&&&&----%%%%%==============================================================%%%+++++++++++++++++++++++++++++...",
".&&&***++.@@@@@@@&&&&&-----%%%%%=============================================================%%%+++++++++++++++++++++++++++++...",
".&&&***++.@@@@@@@&&&&&------%%%%=============================================================%%%+++++++++++++++++++++++++++++...",
".&&&***++.@@@@@@@&&&&&-------%%%%============================================================%%%+++++++++++++++++++++++++++++...",
".&&&***++.@@@@@@@@&&&&-------%%%%%===========================================================%%%+++++++++++++++++++++++++++++...",
".&&&***++.@@@@@@@@&&&&--------%%%%%==========================================================%%%........................+++++...",
".&&&***++.@@@@@@@@&&&&---------%%%%%=========================================================%%%+++++++++++++++++++++++++++++...",
".&&&***++.@@@@@@@@@&&&----------%%%%=========================================================%%%+++++++++++++++++++++++++++++...",
"..........@@@@@@@@@&&&-----------%%%%========================================================%%%+++++++++++++++++++++++++++++...",
"         .@@@@@@@@@@&&-----------%%%%%=======================================================%%%+++++++++++++++++++++++++++++...",
"         .@@@@@@@@@@&&------------%%%%%======================================================%%%+++++++++++++++++++++++++++++...",
"         .@@@@@@@@@@@&-------------%%%%%=====================================================%%%+++++++++++++++++++++++++++++...",
"         .@@@@@@@@@@@@&&&&&&&&&&&&&&%%%%=====================================================%%%+++++++++++++++++++++++++++++...",
"         .@@@@@@@@@@@@&&&&&&&&&&&&&&&%%%%====================================================%%%+++++++++++++++++++++++++++++...",
"         .@@@@@@@@@@@@@&&&&&&&&&&&&&&%%%%%===================================================%%%..........................+++...",
"         .@@@@@@@@@@@@@@&&&&&&&&&&&&&&%%%%%==================================================%%%+++++++++++++++++++++++++++++...",
"         .@@@@@@@@@@@@@@@@&&&&&&&&&&&&&%%%%%=================================================%%%+++++++++++++++++++++++++++++...",
"..........@@@@@@@@@@@@@@@@@&&&&&&&&&&&&@%%%%%================%%%%%%%%%%%%%%%%%%%%%%%%%%%%%%%%%%%+++++++++++++++++++++++++++++...",
".&&&***++.@@@@@@@@@@@@@@@@@@@@&&&&&&@@@@@%%%%================%%%%%%%%%%%%%%%%%%%%%%%%%%%%%%%%%%%+++++++++++++++++++++++++++++...",
".&&&***++.@@@@@@@@@@@@@@@@@@@@@@@@@@@@@@@@%%%%===============%%%%%%%%%%%%%%%%%%%%%%%%%%%%%%%%%%%+++++++++++++++++++++++++++++...",
".&&&***++.@@@@@@@@@@@@@@@@@@@@@@@@@@@@@@@@%%%%%==============%%%            ...++++++++++++++++++++++++++++++++++++++++++++++...",
".&&&***++.@@@@@@@@@@@@@@@@@@@@@@@@@@@@@@@@@%%%%%=============%%%            ...++++++++++++++++++++++++++++++++++++++++++++++...",
".&&&***++.@@@@@@@@@@@@@@@@@@@@@@@@@@@@@@@@@@%%%%%============%%%            ...++++++++++++++++++++++++++++++++++++++++++++++...",
".&&&***++.@@@@@@@@@@@@@@@@@@@@@@@@@@@@@@@@@@@%%%%============%%%            ...+++++++...................................++++...",
".&&&***++.@@@@@@@@@@@@@@@@@@@@@@@@@@@@@@@@@@@@%%%%===========%%%            ...++++++++++++++++++++++++++++++++++++++++++++++...",
".&&&***++.@@@@@@@@@@@@@@@@@@@@@@@@@@@@@@@@@@@@%%%%%==========%%%            ...++++++++++++++++++++++++++++++++++++++++++++++...",
".&&&***++.@@@@@@@@@@@@@@@@@@@@@@@@@@@@@@@@@@@@@%%%%%=========%%%            ...++++++++++++++++++++++++++++++++++++++++++++++...",
".&&&***++.@@@@@@@@@@@@@@@@@@@@@@@@@@@@@@@@@@@@@@%%%%%========%%%            ...++++++++++++++++++++++++++++++++++++++++++++++...",
".&&&***++.@@@@@@@@@@@@@@@@@@@@@@@@@@@@@@@@@@@@@@@%%%%========%%%            ...++++++++++++++++++++++++++++++++++++++++++++++...",
".&&&***++.@@@@@@@@@@@@@@@@@@@@@@@@@@@@@@@@@@@@@@@@%%%%=======%%%            ...++++++++++++++++++++++++++++++++++++++++++++++...",
".&&&***++.@@@@@@@@@@@@@@@@@@@@@@@@@@@@@@@@@@@@@@@@%%%%%======%%%            ...++++++++++++++++++++++++++++++++++++++++++++++...",
".&&&***++.@@@@@@@@@@@@@@@@@@@@@@@@@@@@@@@@@@@@@@@@@%%%%%=====%%%            ...++++++++++++++++++++++++++++++++++++++++++++++...",
".&&&***++.@@@@@@@@@@@@@@@@@@@@@@@@@@@@@@@@@@@@@@@@@@%%%%%====%%%            ...++++++....................................++++...",
".&&&***++.@@@@@@@@@@@@@@@@@@@@@@@@@@@@@@@@@@@@@@@@@@@%%%%%===%%%            ...++++++++++++++++++++++++++++++++++++++++++++++...",
".&&&***++.@@@@@@@@@@@@@@@@@@@@@@@@@@@@@@@@@@@@@@@@@@@@%%%%===%%%            ...++++++++++++++++++++++++++++++++++++++++++++++...",
".&&&***++.@@@@@@@@@@@@@@@@@@@@@@@@@@@@@@@@@@@@@@@@@@@@.%%%%==%%%            ...++++++++++++++++++++++++++++++++++++++++++++++...",
".&&&***++.@@@@@@@@@@@@@@@@@@@@@@@@@@@@@@@@@@@@@@@@@@@@.%%%%%=%%%            ...++++++++++++++++++++++++++++++++++++++++++++++...",
".&&&***++.@@@@@@@@@@@@@@@@@@@@@@@@@@@@@@@@@@@@@@@@@@@@.+%%%%%%%%            ...++++++++++++++++++++++++++++++++++++++++++++++...",
".&&&***++.@@@@@@@@@@@@@@@@@@@@@@@@@@@@@@@@@@@@@@@@@@@@.++%%%%%%%            ...++++++++++++++++++++++++++++++++++++++++++++++...",
".&&&***++.@@@@@@@@@@@@@@@@@@@@@@@@@@@@@@@@@@@@@@@@@@@@.++*%%%%%%            ...++++++++++++++++++++++++++++++++++++++++++++++...",
".&&&***++.@@@@@@@@@@@@@@@@@@@@@@@@@@@@@@@@@@@@@@@@@@@@.++**%%%%%            ...++++++++++++++++++++++++++++++++++++++++++++++...",
".&&&***++.@@@@@@@@@@@@@@@@@@@@@@@@@@@@@@@@@@@@@@@@@@@@.++**%%%%%            ...++++++++++++++++++++++++++++++++++++++++++++++...",
".&&&***++.@@@@@@@@@@@@@@@@@@@@@@@@@@@@@@@@@@@@@@@@@@@@.++***%%%%            ...+++++.....................................++++...",
"..........@@@@@@@@@@@@@@@@@@@@@@@@@@@@@@@@@@@@@@@@@@@@.......%%%            ...++++++++++++++++++++++++++++++++++++++++++++++...",
"         .@@@@@@@@@@@@@@@@@@@@@@@@@@@@@@@@@@@@@@@@@@@@.                     ...++++++++++++++++++++++++++++++++++++++++++++++...",
"         .@@@@@@@@@@@@@@@@@@@@@@@@@@@@@@@@@@@@@@@@@@@@.                     ...++++++++++++++++++++++++++++++++++++++++++++++...",
"         .@@@@@@@@@@@@@@@@@@@@@@@@@@@@@@@@@@@@@@@@@@@@.                     ...++++++++++++++++++++++++++++++++++++++++++++++...",
"         ..............................................                     ...++++++++++++++++++++++++++++++++++++++++++++++...",
"                                                                            ...++++++++++++++++++++++++++++++++++++++++++++++...",
"                                                                            ...++++++++++++++++++++++++++++++++++++++++++++++...",
"                                                                            ...++++++++++++++++++++++++++++++++++++++++++++++...",
"                                                                            ....................................................",
"                                                                            ....................................................",
"                                                                            ....................................................",
"                                                                                                                                ",
"                                                                                                                                ",
"                                                                                                                                ",
"                                                                                                                                ",
"                                                                                                                                ",
"                                                                                                                                "};
